<?xml version="1.0" encoding="UTF-8" standalone="no"?>
<!DOCTYPE svg PUBLIC "-//W3C//DTD SVG 1.1//EN"
 "http://www.w3.org/Graphics/SVG/1.1/DTD/svg11.dtd">
<!-- Generated by graphviz version 2.40.1 (20161225.0304)
 -->
<!-- Title: dependencies Pages: 1 -->
<svg width="504pt" height="284pt"
 viewBox="0.00 0.00 504.00 284.00" xmlns="http://www.w3.org/2000/svg" xmlns:xlink="http://www.w3.org/1999/xlink">
<g id="graph0" class="graph" transform="scale(1 1) rotate(0) translate(4 280)">
<title>dependencies</title>
<polygon fill="#ffffff" stroke="transparent" points="-4,4 -4,-280 500,-280 500,4 -4,4"/>
<text text-anchor="start" x="227.0091" y="-42.4" font-family="sans-serif" font-weight="bold" font-size="14.00" fill="#000000">Legend</text>
<polygon fill="#ffffb3" stroke="transparent" points="14,-10 14,-30 34,-30 34,-10 14,-10"/>
<text text-anchor="start" x="37.629" y="-15.4" font-family="sans-serif" font-size="14.00" fill="#000000"> &#160;Declarations</text>
<polygon fill="#8dd3c7" stroke="transparent" points="127,-10 127,-30 147,-30 147,-10 127,-10"/>
<text text-anchor="start" x="150.7251" y="-15.4" font-family="sans-serif" font-size="14.00" fill="#000000"> &#160;Module</text>
<polygon fill="#80b1d3" stroke="transparent" points="213,-10 213,-30 233,-30 233,-10 213,-10"/>
<text text-anchor="start" x="236.7812" y="-15.4" font-family="sans-serif" font-size="14.00" fill="#000000"> &#160;Bootstrap</text>
<polygon fill="#fdb462" stroke="transparent" points="310,-10 310,-30 330,-30 330,-10 310,-10"/>
<text text-anchor="start" x="333.6732" y="-15.4" font-family="sans-serif" font-size="14.00" fill="#000000"> &#160;Providers</text>
<polygon fill="#fb8072" stroke="transparent" points="406,-10 406,-30 426,-30 426,-10 406,-10"/>
<text text-anchor="start" x="429.7258" y="-15.4" font-family="sans-serif" font-size="14.00" fill="#000000"> &#160;Exports</text>
<g id="clust1" class="cluster">
<title>cluster_MaterialModule</title>
<polygon fill="none" stroke="#000000" stroke-dasharray="1,5" points="102,-70 102,-268 394,-268 394,-70 102,-70"/>
</g>
<g id="clust3" class="cluster">
<title>cluster_MaterialModule_imports</title>
<polygon fill="none" stroke="#000000" points="114,-78 114,-130 382,-130 382,-78 114,-78"/>
</g>
<g id="clust4" class="cluster">
<title>cluster_MaterialModule_exports</title>
<polygon fill="none" stroke="#000000" points="110,-208 110,-260 386,-260 386,-208 110,-208"/>
</g>
<!-- MatButtonModule -->
<g id="node1" class="node">
<title>MatButtonModule</title>
<polygon fill="#8dd3c7" stroke="#000000" points="374.2176,-122 371.2176,-126 350.2176,-126 347.2176,-122 253.7824,-122 253.7824,-86 374.2176,-86 374.2176,-122"/>
<text text-anchor="middle" x="314" y="-99.8" font-family="Times,serif" font-size="14.00" fill="#000000">MatButtonModule</text>
</g>
<!-- MaterialModule -->
<g id="node3" class="node">
<title>MaterialModule</title>
<polygon fill="#8dd3c7" stroke="#000000" points="233.4706,-187 230.4706,-191 209.4706,-191 206.4706,-187 126.5294,-187 126.5294,-151 233.4706,-151 233.4706,-187"/>
<text text-anchor="middle" x="180" y="-164.8" font-family="Times,serif" font-size="14.00" fill="#000000">MaterialModule</text>
</g>
<!-- MatButtonModule&#45;&gt;MaterialModule -->
<g id="edge1" class="edge">
<title>MatButtonModule&#45;&gt;MaterialModule</title>
<path fill="none" stroke="#000000" d="M334.1196,-122.0225C334.1196,-139.3734 334.1196,-163 334.1196,-163 334.1196,-163 243.471,-163 243.471,-163"/>
<polygon fill="#000000" stroke="#000000" points="243.471,-159.5001 233.471,-163 243.471,-166.5001 243.471,-159.5001"/>
</g>
<!-- MatMenuModule -->
<g id="node2" class="node">
<title>MatMenuModule</title>
<polygon fill="#8dd3c7" stroke="#000000" points="236.2591,-122 233.2591,-126 212.2591,-126 209.2591,-122 121.7409,-122 121.7409,-86 236.2591,-86 236.2591,-122"/>
<text text-anchor="middle" x="179" y="-99.8" font-family="Times,serif" font-size="14.00" fill="#000000">MatMenuModule</text>
</g>
<!-- MatMenuModule&#45;&gt;MaterialModule -->
<g id="edge2" class="edge">
<title>MatMenuModule&#45;&gt;MaterialModule</title>
<path fill="none" stroke="#000000" d="M180,-122.1061C180,-122.1061 180,-140.991 180,-140.991"/>
<polygon fill="#000000" stroke="#000000" points="176.5001,-140.9909 180,-150.991 183.5001,-140.991 176.5001,-140.9909"/>
</g>
<!-- MatButtonModule  -->
<g id="node4" class="node">
<title>MatButtonModule </title>
<polygon fill="#fb8072" stroke="#000000" points="377.7177,-252 254.2823,-252 254.2823,-216 377.7177,-216 377.7177,-252"/>
<text text-anchor="middle" x="316" y="-229.8" font-family="Times,serif" font-size="14.00" fill="#000000">MatButtonModule </text>
</g>
<!-- MaterialModule&#45;&gt;MatButtonModule  -->
<g id="edge3" class="edge">
<title>MaterialModule&#45;&gt;MatButtonModule </title>
<path fill="none" stroke="#000000" stroke-dasharray="5,2" d="M233.7233,-175C263.3252,-175 294.1304,-175 294.1304,-175 294.1304,-175 294.1304,-205.9775 294.1304,-205.9775"/>
<polygon fill="#000000" stroke="#000000" points="290.6305,-205.9774 294.1304,-215.9775 297.6305,-205.9775 290.6305,-205.9774"/>
</g>
<!-- MatMenuModule  -->
<g id="node5" class="node">
<title>MatMenuModule </title>
<polygon fill="#fb8072" stroke="#000000" points="236.2591,-252 117.7409,-252 117.7409,-216 236.2591,-216 236.2591,-252"/>
<text text-anchor="middle" x="177" y="-229.8" font-family="Times,serif" font-size="14.00" fill="#000000">MatMenuModule </text>
</g>
<!-- MaterialModule&#45;&gt;MatMenuModule  -->
<g id="edge4" class="edge">
<title>MaterialModule&#45;&gt;MatMenuModule </title>
<path fill="none" stroke="#000000" stroke-dasharray="5,2" d="M180,-187.1061C180,-187.1061 180,-205.991 180,-205.991"/>
<polygon fill="#000000" stroke="#000000" points="176.5001,-205.9909 180,-215.991 183.5001,-205.991 176.5001,-205.9909"/>
</g>
</g>
</svg>
