<?xml version="1.0" encoding="UTF-8" standalone="no"?>
<!DOCTYPE svg PUBLIC "-//W3C//DTD SVG 1.1//EN"
 "http://www.w3.org/Graphics/SVG/1.1/DTD/svg11.dtd">
<!-- Generated by graphviz version 2.40.1 (20161225.0304)
 -->
<!-- Title: dependencies Pages: 1 -->
<svg width="2058pt" height="284pt"
 viewBox="0.00 0.00 2058.00 284.00" xmlns="http://www.w3.org/2000/svg" xmlns:xlink="http://www.w3.org/1999/xlink">
<g id="graph0" class="graph" transform="scale(1 1) rotate(0) translate(4 280)">
<title>dependencies</title>
<polygon fill="#ffffff" stroke="transparent" points="-4,4 -4,-280 2054,-280 2054,4 -4,4"/>
<text text-anchor="start" x="1004.0091" y="-42.4" font-family="sans-serif" font-weight="bold" font-size="14.00" fill="#000000">Legend</text>
<polygon fill="#ffffb3" stroke="transparent" points="791,-10 791,-30 811,-30 811,-10 791,-10"/>
<text text-anchor="start" x="814.629" y="-15.4" font-family="sans-serif" font-size="14.00" fill="#000000"> &#160;Declarations</text>
<polygon fill="#8dd3c7" stroke="transparent" points="904,-10 904,-30 924,-30 924,-10 904,-10"/>
<text text-anchor="start" x="927.7251" y="-15.4" font-family="sans-serif" font-size="14.00" fill="#000000"> &#160;Module</text>
<polygon fill="#80b1d3" stroke="transparent" points="990,-10 990,-30 1010,-30 1010,-10 990,-10"/>
<text text-anchor="start" x="1013.7812" y="-15.4" font-family="sans-serif" font-size="14.00" fill="#000000"> &#160;Bootstrap</text>
<polygon fill="#fdb462" stroke="transparent" points="1087,-10 1087,-30 1107,-30 1107,-10 1087,-10"/>
<text text-anchor="start" x="1110.6732" y="-15.4" font-family="sans-serif" font-size="14.00" fill="#000000"> &#160;Providers</text>
<polygon fill="#fb8072" stroke="transparent" points="1183,-10 1183,-30 1203,-30 1203,-10 1183,-10"/>
<text text-anchor="start" x="1206.7258" y="-15.4" font-family="sans-serif" font-size="14.00" fill="#000000"> &#160;Exports</text>
<g id="clust1" class="cluster">
<title>cluster_AppModule</title>
<polygon fill="none" stroke="#000000" stroke-dasharray="1,5" points="8,-70 8,-268 2042,-268 2042,-70 8,-70"/>
</g>
<g id="clust2" class="cluster">
<title>cluster_AppModule_declarations</title>
<polygon fill="none" stroke="#000000" points="487,-78 487,-130 2034,-130 2034,-78 487,-78"/>
</g>
<g id="clust13" class="cluster">
<title>cluster_AppModule_imports</title>
<polygon fill="none" stroke="#000000" points="210,-78 210,-130 479,-130 479,-78 210,-78"/>
</g>
<g id="clust15" class="cluster">
<title>cluster_AppModule_bootstrap</title>
<polygon fill="none" stroke="#000000" points="919,-208 919,-260 1043,-260 1043,-208 919,-208"/>
</g>
<g id="clust16" class="cluster">
<title>cluster_AppModule_providers</title>
<polygon fill="none" stroke="#000000" points="16,-78 16,-130 202,-130 202,-78 16,-78"/>
</g>
<!-- ApiComponent -->
<g id="node1" class="node">
<title>ApiComponent</title>
<polygon fill="#ffffb3" stroke="#000000" points="2026.3301,-122 1923.6699,-122 1923.6699,-86 2026.3301,-86 2026.3301,-122"/>
<text text-anchor="middle" x="1975" y="-99.8" font-family="Times,serif" font-size="14.00" fill="#000000">ApiComponent</text>
</g>
<!-- AppModule -->
<g id="node11" class="node">
<title>AppModule</title>
<polygon fill="#8dd3c7" stroke="#000000" points="1022.6571,-187 1019.6571,-191 998.6571,-191 995.6571,-187 939.3429,-187 939.3429,-151 1022.6571,-151 1022.6571,-187"/>
<text text-anchor="middle" x="981" y="-164.8" font-family="Times,serif" font-size="14.00" fill="#000000">AppModule</text>
</g>
<!-- ApiComponent&#45;&gt;AppModule -->
<g id="edge1" class="edge">
<title>ApiComponent&#45;&gt;AppModule</title>
<path fill="none" stroke="#000000" d="M1975,-122.0908C1975,-145.1328 1975,-182 1975,-182 1975,-182 1032.7602,-182 1032.7602,-182"/>
<polygon fill="#000000" stroke="#000000" points="1032.7602,-178.5001 1022.7602,-182 1032.7602,-185.5001 1032.7602,-178.5001"/>
</g>
<!-- AppComponent -->
<g id="node2" class="node">
<title>AppComponent</title>
<polygon fill="#ffffb3" stroke="#000000" points="1905.9399,-122 1800.0601,-122 1800.0601,-86 1905.9399,-86 1905.9399,-122"/>
<text text-anchor="middle" x="1853" y="-99.8" font-family="Times,serif" font-size="14.00" fill="#000000">AppComponent</text>
</g>
<!-- AppComponent&#45;&gt;AppModule -->
<g id="edge2" class="edge">
<title>AppComponent&#45;&gt;AppModule</title>
<path fill="none" stroke="#000000" d="M1853,-122.0449C1853,-143.6623 1853,-177 1853,-177 1853,-177 1032.7646,-177 1032.7646,-177"/>
<polygon fill="#000000" stroke="#000000" points="1032.7646,-173.5001 1022.7646,-177 1032.7646,-180.5001 1032.7646,-173.5001"/>
</g>
<!-- BottomSheetOverviewExampleSheet -->
<g id="node3" class="node">
<title>BottomSheetOverviewExampleSheet</title>
<polygon fill="#ffffb3" stroke="#000000" points="1782.6699,-122 1557.3301,-122 1557.3301,-86 1782.6699,-86 1782.6699,-122"/>
<text text-anchor="middle" x="1670" y="-99.8" font-family="Times,serif" font-size="14.00" fill="#000000">BottomSheetOverviewExampleSheet</text>
</g>
<!-- BottomSheetOverviewExampleSheet&#45;&gt;AppModule -->
<g id="edge3" class="edge">
<title>BottomSheetOverviewExampleSheet&#45;&gt;AppModule</title>
<path fill="none" stroke="#000000" d="M1670,-122.2228C1670,-142.3652 1670,-172 1670,-172 1670,-172 1032.8053,-172 1032.8053,-172"/>
<polygon fill="#000000" stroke="#000000" points="1032.8053,-168.5001 1022.8053,-172 1032.8053,-175.5001 1032.8053,-168.5001"/>
</g>
<!-- ComponentLoaderDirective -->
<g id="node4" class="node">
<title>ComponentLoaderDirective</title>
<polygon fill="#ffffb3" stroke="#000000" points="1539.5576,-122 1366.4424,-122 1366.4424,-86 1539.5576,-86 1539.5576,-122"/>
<text text-anchor="middle" x="1453" y="-99.8" font-family="Times,serif" font-size="14.00" fill="#000000">ComponentLoaderDirective</text>
</g>
<!-- ComponentLoaderDirective&#45;&gt;AppModule -->
<g id="edge4" class="edge">
<title>ComponentLoaderDirective&#45;&gt;AppModule</title>
<path fill="none" stroke="#000000" d="M1453,-122.2222C1453,-140.8285 1453,-167 1453,-167 1453,-167 1032.8869,-167 1032.8869,-167"/>
<polygon fill="#000000" stroke="#000000" points="1032.8869,-163.5001 1022.8869,-167 1032.8868,-170.5001 1032.8869,-163.5001"/>
</g>
<!-- ComponentsComponent -->
<g id="node5" class="node">
<title>ComponentsComponent</title>
<polygon fill="#ffffb3" stroke="#000000" points="1348.1094,-122 1195.8906,-122 1195.8906,-86 1348.1094,-86 1348.1094,-122"/>
<text text-anchor="middle" x="1272" y="-99.8" font-family="Times,serif" font-size="14.00" fill="#000000">ComponentsComponent</text>
</g>
<!-- ComponentsComponent&#45;&gt;AppModule -->
<g id="edge5" class="edge">
<title>ComponentsComponent&#45;&gt;AppModule</title>
<path fill="none" stroke="#000000" d="M1272,-122.0336C1272,-139.0597 1272,-162 1272,-162 1272,-162 1032.6932,-162 1032.6932,-162"/>
<polygon fill="#000000" stroke="#000000" points="1032.6932,-158.5001 1022.6932,-162 1032.6932,-165.5001 1032.6932,-158.5001"/>
</g>
<!-- FooterComponent -->
<g id="node6" class="node">
<title>FooterComponent</title>
<polygon fill="#ffffb3" stroke="#000000" points="1177.8809,-122 1060.1191,-122 1060.1191,-86 1177.8809,-86 1177.8809,-122"/>
<text text-anchor="middle" x="1119" y="-99.8" font-family="Times,serif" font-size="14.00" fill="#000000">FooterComponent</text>
</g>
<!-- FooterComponent&#45;&gt;AppModule -->
<g id="edge6" class="edge">
<title>FooterComponent&#45;&gt;AppModule</title>
<path fill="none" stroke="#000000" d="M1119,-122.2396C1119,-137.5706 1119,-157 1119,-157 1119,-157 1032.779,-157 1032.779,-157"/>
<polygon fill="#000000" stroke="#000000" points="1032.7791,-153.5001 1022.779,-157 1032.779,-160.5001 1032.7791,-153.5001"/>
</g>
<!-- HeaderComponent -->
<g id="node7" class="node">
<title>HeaderComponent</title>
<polygon fill="#ffffb3" stroke="#000000" points="1041.7437,-122 920.2563,-122 920.2563,-86 1041.7437,-86 1041.7437,-122"/>
<text text-anchor="middle" x="981" y="-99.8" font-family="Times,serif" font-size="14.00" fill="#000000">HeaderComponent</text>
</g>
<!-- HeaderComponent&#45;&gt;AppModule -->
<g id="edge7" class="edge">
<title>HeaderComponent&#45;&gt;AppModule</title>
<path fill="none" stroke="#000000" d="M981,-122.1061C981,-122.1061 981,-140.991 981,-140.991"/>
<polygon fill="#000000" stroke="#000000" points="977.5001,-140.9909 981,-150.991 984.5001,-140.991 977.5001,-140.9909"/>
</g>
<!-- MainComponent -->
<g id="node8" class="node">
<title>MainComponent</title>
<polygon fill="#ffffb3" stroke="#000000" points="902.3823,-122 791.6177,-122 791.6177,-86 902.3823,-86 902.3823,-122"/>
<text text-anchor="middle" x="847" y="-99.8" font-family="Times,serif" font-size="14.00" fill="#000000">MainComponent</text>
</g>
<!-- MainComponent&#45;&gt;AppModule -->
<g id="edge8" class="edge">
<title>MainComponent&#45;&gt;AppModule</title>
<path fill="none" stroke="#000000" d="M847,-122.2396C847,-137.5706 847,-157 847,-157 847,-157 929.3361,-157 929.3361,-157"/>
<polygon fill="#000000" stroke="#000000" points="929.3361,-160.5001 939.3361,-157 929.3361,-153.5001 929.3361,-160.5001"/>
</g>
<!-- OverviewComponent -->
<g id="node9" class="node">
<title>OverviewComponent</title>
<polygon fill="#ffffb3" stroke="#000000" points="773.0268,-122 636.9732,-122 636.9732,-86 773.0268,-86 773.0268,-122"/>
<text text-anchor="middle" x="705" y="-99.8" font-family="Times,serif" font-size="14.00" fill="#000000">OverviewComponent</text>
</g>
<!-- OverviewComponent&#45;&gt;AppModule -->
<g id="edge9" class="edge">
<title>OverviewComponent&#45;&gt;AppModule</title>
<path fill="none" stroke="#000000" d="M705,-122.0336C705,-139.0597 705,-162 705,-162 705,-162 929.0815,-162 929.0815,-162"/>
<polygon fill="#000000" stroke="#000000" points="929.0816,-165.5001 939.0815,-162 929.0815,-158.5001 929.0816,-165.5001"/>
</g>
<!-- TestingComponent -->
<g id="node10" class="node">
<title>TestingComponent</title>
<polygon fill="#ffffb3" stroke="#000000" points="618.8258,-122 495.1742,-122 495.1742,-86 618.8258,-86 618.8258,-122"/>
<text text-anchor="middle" x="557" y="-99.8" font-family="Times,serif" font-size="14.00" fill="#000000">TestingComponent</text>
</g>
<!-- TestingComponent&#45;&gt;AppModule -->
<g id="edge10" class="edge">
<title>TestingComponent&#45;&gt;AppModule</title>
<path fill="none" stroke="#000000" d="M557,-122.2222C557,-140.8285 557,-167 557,-167 557,-167 929.1849,-167 929.1849,-167"/>
<polygon fill="#000000" stroke="#000000" points="929.1849,-170.5001 939.1849,-167 929.1848,-163.5001 929.1849,-170.5001"/>
</g>
<!-- AppComponent  -->
<g id="node14" class="node">
<title>AppComponent </title>
<polygon fill="#80b1d3" stroke="#000000" points="1035.439,-252 926.561,-252 926.561,-216 1035.439,-216 1035.439,-252"/>
<text text-anchor="middle" x="981" y="-229.8" font-family="Times,serif" font-size="14.00" fill="#000000">AppComponent </text>
</g>
<!-- AppModule&#45;&gt;AppComponent  -->
<g id="edge13" class="edge">
<title>AppModule&#45;&gt;AppComponent </title>
<path fill="none" stroke="#000000" stroke-dasharray="1,5" d="M981,-187.1061C981,-187.1061 981,-205.991 981,-205.991"/>
<polygon fill="#000000" stroke="#000000" points="977.5001,-205.9909 981,-215.991 984.5001,-205.991 977.5001,-205.9909"/>
</g>
<!-- AppRoutingModule -->
<g id="node12" class="node">
<title>AppRoutingModule</title>
<polygon fill="#8dd3c7" stroke="#000000" points="471.2744,-122 468.2744,-126 447.2744,-126 444.2744,-122 342.7256,-122 342.7256,-86 471.2744,-86 471.2744,-122"/>
<text text-anchor="middle" x="407" y="-99.8" font-family="Times,serif" font-size="14.00" fill="#000000">AppRoutingModule</text>
</g>
<!-- AppRoutingModule&#45;&gt;AppModule -->
<g id="edge11" class="edge">
<title>AppRoutingModule&#45;&gt;AppModule</title>
<path fill="none" stroke="#000000" d="M407,-122.2228C407,-142.3652 407,-172 407,-172 407,-172 929.257,-172 929.257,-172"/>
<polygon fill="#000000" stroke="#000000" points="929.257,-175.5001 939.257,-172 929.2569,-168.5001 929.257,-175.5001"/>
</g>
<!-- MaterialModule -->
<g id="node13" class="node">
<title>MaterialModule</title>
<polygon fill="#8dd3c7" stroke="#000000" points="324.4706,-122 321.4706,-126 300.4706,-126 297.4706,-122 217.5294,-122 217.5294,-86 324.4706,-86 324.4706,-122"/>
<text text-anchor="middle" x="271" y="-99.8" font-family="Times,serif" font-size="14.00" fill="#000000">MaterialModule</text>
</g>
<!-- MaterialModule&#45;&gt;AppModule -->
<g id="edge12" class="edge">
<title>MaterialModule&#45;&gt;AppModule</title>
<path fill="none" stroke="#000000" d="M271,-122.0449C271,-143.6623 271,-177 271,-177 271,-177 929.237,-177 929.237,-177"/>
<polygon fill="#000000" stroke="#000000" points="929.237,-180.5001 939.237,-177 929.2369,-173.5001 929.237,-180.5001"/>
</g>
<!-- ComponentService -->
<g id="node15" class="node">
<title>ComponentService</title>
<ellipse fill="#fdb462" stroke="#000000" cx="109" cy="-104" rx="85.114" ry="18"/>
<text text-anchor="middle" x="109" y="-99.8" font-family="Times,serif" font-size="14.00" fill="#000000">ComponentService</text>
</g>
<!-- ComponentService&#45;&gt;AppModule -->
<g id="edge14" class="edge">
<title>ComponentService&#45;&gt;AppModule</title>
<path fill="none" stroke="#000000" d="M109,-122.0908C109,-145.1328 109,-182 109,-182 109,-182 929.2354,-182 929.2354,-182"/>
<polygon fill="#000000" stroke="#000000" points="929.2354,-185.5001 939.2354,-182 929.2354,-178.5001 929.2354,-185.5001"/>
</g>
</g>
</svg>
