<?xml version="1.0" encoding="UTF-8" standalone="no"?>
<!DOCTYPE svg PUBLIC "-//W3C//DTD SVG 1.1//EN"
 "http://www.w3.org/Graphics/SVG/1.1/DTD/svg11.dtd">
<!-- Generated by graphviz version 2.40.1 (20161225.0304)
 -->
<!-- Title: dependencies Pages: 1 -->
<svg width="2113pt" height="284pt"
 viewBox="0.00 0.00 2113.00 284.00" xmlns="http://www.w3.org/2000/svg" xmlns:xlink="http://www.w3.org/1999/xlink">
<g id="graph0" class="graph" transform="scale(1 1) rotate(0) translate(4 280)">
<title>dependencies</title>
<polygon fill="#ffffff" stroke="transparent" points="-4,4 -4,-280 2109,-280 2109,4 -4,4"/>
<text text-anchor="start" x="1031.5091" y="-42.4" font-family="sans-serif" font-weight="bold" font-size="14.00" fill="#000000">Legend</text>
<polygon fill="#ffffb3" stroke="transparent" points="818.5,-10 818.5,-30 838.5,-30 838.5,-10 818.5,-10"/>
<text text-anchor="start" x="842.129" y="-15.4" font-family="sans-serif" font-size="14.00" fill="#000000"> &#160;Declarations</text>
<polygon fill="#8dd3c7" stroke="transparent" points="931.5,-10 931.5,-30 951.5,-30 951.5,-10 931.5,-10"/>
<text text-anchor="start" x="955.2251" y="-15.4" font-family="sans-serif" font-size="14.00" fill="#000000"> &#160;Module</text>
<polygon fill="#80b1d3" stroke="transparent" points="1017.5,-10 1017.5,-30 1037.5,-30 1037.5,-10 1017.5,-10"/>
<text text-anchor="start" x="1041.2812" y="-15.4" font-family="sans-serif" font-size="14.00" fill="#000000"> &#160;Bootstrap</text>
<polygon fill="#fdb462" stroke="transparent" points="1114.5,-10 1114.5,-30 1134.5,-30 1134.5,-10 1114.5,-10"/>
<text text-anchor="start" x="1138.1732" y="-15.4" font-family="sans-serif" font-size="14.00" fill="#000000"> &#160;Providers</text>
<polygon fill="#fb8072" stroke="transparent" points="1210.5,-10 1210.5,-30 1230.5,-30 1230.5,-10 1210.5,-10"/>
<text text-anchor="start" x="1234.2258" y="-15.4" font-family="sans-serif" font-size="14.00" fill="#000000"> &#160;Exports</text>
<g id="clust1" class="cluster">
<title>cluster_AppModule</title>
<polygon fill="none" stroke="#000000" stroke-dasharray="1,5" points="8,-70 8,-268 2097,-268 2097,-70 8,-70"/>
</g>
<g id="clust2" class="cluster">
<title>cluster_AppModule_declarations</title>
<polygon fill="none" stroke="#000000" points="487,-78 487,-130 2089,-130 2089,-78 487,-78"/>
</g>
<g id="clust14" class="cluster">
<title>cluster_AppModule_imports</title>
<polygon fill="none" stroke="#000000" points="210,-78 210,-130 479,-130 479,-78 210,-78"/>
</g>
<g id="clust16" class="cluster">
<title>cluster_AppModule_bootstrap</title>
<polygon fill="none" stroke="#000000" points="973,-208 973,-260 1097,-260 1097,-208 973,-208"/>
</g>
<g id="clust17" class="cluster">
<title>cluster_AppModule_providers</title>
<polygon fill="none" stroke="#000000" points="16,-78 16,-130 202,-130 202,-78 16,-78"/>
</g>
<!-- ApiComponent -->
<g id="node1" class="node">
<title>ApiComponent</title>
<polygon fill="#ffffb3" stroke="#000000" points="2081.3301,-122 1978.6699,-122 1978.6699,-86 2081.3301,-86 2081.3301,-122"/>
<text text-anchor="middle" x="2030" y="-99.8" font-family="Times,serif" font-size="14.00" fill="#000000">ApiComponent</text>
</g>
<!-- AppModule -->
<g id="node12" class="node">
<title>AppModule</title>
<polygon fill="#8dd3c7" stroke="#000000" points="1076.6571,-187 1073.6571,-191 1052.6571,-191 1049.6571,-187 993.3429,-187 993.3429,-151 1076.6571,-151 1076.6571,-187"/>
<text text-anchor="middle" x="1035" y="-164.8" font-family="Times,serif" font-size="14.00" fill="#000000">AppModule</text>
</g>
<!-- ApiComponent&#45;&gt;AppModule -->
<g id="edge1" class="edge">
<title>ApiComponent&#45;&gt;AppModule</title>
<path fill="none" stroke="#000000" d="M2030,-122.0908C2030,-145.1328 2030,-182 2030,-182 2030,-182 1086.8022,-182 1086.8022,-182"/>
<polygon fill="#000000" stroke="#000000" points="1086.8023,-178.5001 1076.8022,-182 1086.8022,-185.5001 1086.8023,-178.5001"/>
</g>
<!-- AppComponent -->
<g id="node2" class="node">
<title>AppComponent</title>
<polygon fill="#ffffb3" stroke="#000000" points="1960.9399,-122 1855.0601,-122 1855.0601,-86 1960.9399,-86 1960.9399,-122"/>
<text text-anchor="middle" x="1908" y="-99.8" font-family="Times,serif" font-size="14.00" fill="#000000">AppComponent</text>
</g>
<!-- AppComponent&#45;&gt;AppModule -->
<g id="edge2" class="edge">
<title>AppComponent&#45;&gt;AppModule</title>
<path fill="none" stroke="#000000" d="M1908,-122.0449C1908,-143.6623 1908,-177 1908,-177 1908,-177 1086.8125,-177 1086.8125,-177"/>
<polygon fill="#000000" stroke="#000000" points="1086.8125,-173.5001 1076.8125,-177 1086.8125,-180.5001 1086.8125,-173.5001"/>
</g>
<!-- CodepenComponent -->
<g id="node3" class="node">
<title>CodepenComponent</title>
<polygon fill="#ffffb3" stroke="#000000" points="1837.5982,-122 1706.4018,-122 1706.4018,-86 1837.5982,-86 1837.5982,-122"/>
<text text-anchor="middle" x="1772" y="-99.8" font-family="Times,serif" font-size="14.00" fill="#000000">CodepenComponent</text>
</g>
<!-- CodepenComponent&#45;&gt;AppModule -->
<g id="edge3" class="edge">
<title>CodepenComponent&#45;&gt;AppModule</title>
<path fill="none" stroke="#000000" d="M1772,-122.2228C1772,-142.3652 1772,-172 1772,-172 1772,-172 1086.736,-172 1086.736,-172"/>
<polygon fill="#000000" stroke="#000000" points="1086.736,-168.5001 1076.736,-172 1086.7359,-175.5001 1086.736,-168.5001"/>
</g>
<!-- ComponentLoaderDirective -->
<g id="node4" class="node">
<title>ComponentLoaderDirective</title>
<polygon fill="#ffffb3" stroke="#000000" points="1688.5576,-122 1515.4424,-122 1515.4424,-86 1688.5576,-86 1688.5576,-122"/>
<text text-anchor="middle" x="1602" y="-99.8" font-family="Times,serif" font-size="14.00" fill="#000000">ComponentLoaderDirective</text>
</g>
<!-- ComponentLoaderDirective&#45;&gt;AppModule -->
<g id="edge4" class="edge">
<title>ComponentLoaderDirective&#45;&gt;AppModule</title>
<path fill="none" stroke="#000000" d="M1602,-122.2222C1602,-140.8285 1602,-167 1602,-167 1602,-167 1086.6929,-167 1086.6929,-167"/>
<polygon fill="#000000" stroke="#000000" points="1086.6929,-163.5001 1076.6929,-167 1086.6928,-170.5001 1086.6929,-163.5001"/>
</g>
<!-- ComponentsComponent -->
<g id="node5" class="node">
<title>ComponentsComponent</title>
<polygon fill="#ffffb3" stroke="#000000" points="1497.1094,-122 1344.8906,-122 1344.8906,-86 1497.1094,-86 1497.1094,-122"/>
<text text-anchor="middle" x="1421" y="-99.8" font-family="Times,serif" font-size="14.00" fill="#000000">ComponentsComponent</text>
</g>
<!-- ComponentsComponent&#45;&gt;AppModule -->
<g id="edge5" class="edge">
<title>ComponentsComponent&#45;&gt;AppModule</title>
<path fill="none" stroke="#000000" d="M1421,-122.0336C1421,-139.0597 1421,-162 1421,-162 1421,-162 1086.6755,-162 1086.6755,-162"/>
<polygon fill="#000000" stroke="#000000" points="1086.6755,-158.5001 1076.6755,-162 1086.6755,-165.5001 1086.6755,-158.5001"/>
</g>
<!-- DescriptionComponent -->
<g id="node6" class="node">
<title>DescriptionComponent</title>
<polygon fill="#ffffb3" stroke="#000000" points="1327.1456,-122 1180.8544,-122 1180.8544,-86 1327.1456,-86 1327.1456,-122"/>
<text text-anchor="middle" x="1254" y="-99.8" font-family="Times,serif" font-size="14.00" fill="#000000">DescriptionComponent</text>
</g>
<!-- DescriptionComponent&#45;&gt;AppModule -->
<g id="edge6" class="edge">
<title>DescriptionComponent&#45;&gt;AppModule</title>
<path fill="none" stroke="#000000" d="M1254,-122.2396C1254,-137.5706 1254,-157 1254,-157 1254,-157 1086.7077,-157 1086.7077,-157"/>
<polygon fill="#000000" stroke="#000000" points="1086.7077,-153.5001 1076.7077,-157 1086.7077,-160.5001 1086.7077,-153.5001"/>
</g>
<!-- FooterComponent -->
<g id="node7" class="node">
<title>FooterComponent</title>
<polygon fill="#ffffb3" stroke="#000000" points="1162.8809,-122 1045.1191,-122 1045.1191,-86 1162.8809,-86 1162.8809,-122"/>
<text text-anchor="middle" x="1104" y="-99.8" font-family="Times,serif" font-size="14.00" fill="#000000">FooterComponent</text>
</g>
<!-- FooterComponent&#45;&gt;AppModule -->
<g id="edge7" class="edge">
<title>FooterComponent&#45;&gt;AppModule</title>
<path fill="none" stroke="#000000" d="M1060.9439,-122.1061C1060.9439,-122.1061 1060.9439,-140.991 1060.9439,-140.991"/>
<polygon fill="#000000" stroke="#000000" points="1057.444,-140.9909 1060.9439,-150.991 1064.444,-140.991 1057.444,-140.9909"/>
</g>
<!-- HeaderComponent -->
<g id="node8" class="node">
<title>HeaderComponent</title>
<polygon fill="#ffffb3" stroke="#000000" points="1026.7437,-122 905.2563,-122 905.2563,-86 1026.7437,-86 1026.7437,-122"/>
<text text-anchor="middle" x="966" y="-99.8" font-family="Times,serif" font-size="14.00" fill="#000000">HeaderComponent</text>
</g>
<!-- HeaderComponent&#45;&gt;AppModule -->
<g id="edge8" class="edge">
<title>HeaderComponent&#45;&gt;AppModule</title>
<path fill="none" stroke="#000000" d="M1010.0218,-122.1061C1010.0218,-122.1061 1010.0218,-140.991 1010.0218,-140.991"/>
<polygon fill="#000000" stroke="#000000" points="1006.5218,-140.9909 1010.0218,-150.991 1013.5218,-140.991 1006.5218,-140.9909"/>
</g>
<!-- MainComponent -->
<g id="node9" class="node">
<title>MainComponent</title>
<polygon fill="#ffffb3" stroke="#000000" points="887.3823,-122 776.6177,-122 776.6177,-86 887.3823,-86 887.3823,-122"/>
<text text-anchor="middle" x="832" y="-99.8" font-family="Times,serif" font-size="14.00" fill="#000000">MainComponent</text>
</g>
<!-- MainComponent&#45;&gt;AppModule -->
<g id="edge9" class="edge">
<title>MainComponent&#45;&gt;AppModule</title>
<path fill="none" stroke="#000000" d="M832,-122.2396C832,-137.5706 832,-157 832,-157 832,-157 982.9383,-157 982.9383,-157"/>
<polygon fill="#000000" stroke="#000000" points="982.9383,-160.5001 992.9383,-157 982.9382,-153.5001 982.9383,-160.5001"/>
</g>
<!-- OrxeComponent -->
<g id="node10" class="node">
<title>OrxeComponent</title>
<polygon fill="#ffffb3" stroke="#000000" points="758.8147,-122 649.1853,-122 649.1853,-86 758.8147,-86 758.8147,-122"/>
<text text-anchor="middle" x="704" y="-99.8" font-family="Times,serif" font-size="14.00" fill="#000000">OrxeComponent</text>
</g>
<!-- OrxeComponent&#45;&gt;AppModule -->
<g id="edge10" class="edge">
<title>OrxeComponent&#45;&gt;AppModule</title>
<path fill="none" stroke="#000000" d="M704,-122.0336C704,-139.0597 704,-162 704,-162 704,-162 983.0786,-162 983.0786,-162"/>
<polygon fill="#000000" stroke="#000000" points="983.0787,-165.5001 993.0786,-162 983.0786,-158.5001 983.0787,-165.5001"/>
</g>
<!-- OverviewComponent -->
<g id="node11" class="node">
<title>OverviewComponent</title>
<polygon fill="#ffffb3" stroke="#000000" points="631.0268,-122 494.9732,-122 494.9732,-86 631.0268,-86 631.0268,-122"/>
<text text-anchor="middle" x="563" y="-99.8" font-family="Times,serif" font-size="14.00" fill="#000000">OverviewComponent</text>
</g>
<!-- OverviewComponent&#45;&gt;AppModule -->
<g id="edge11" class="edge">
<title>OverviewComponent&#45;&gt;AppModule</title>
<path fill="none" stroke="#000000" d="M563,-122.2222C563,-140.8285 563,-167 563,-167 563,-167 983.1131,-167 983.1131,-167"/>
<polygon fill="#000000" stroke="#000000" points="983.1132,-170.5001 993.1131,-167 983.1131,-163.5001 983.1132,-170.5001"/>
</g>
<!-- AppComponent  -->
<g id="node15" class="node">
<title>AppComponent </title>
<polygon fill="#80b1d3" stroke="#000000" points="1089.439,-252 980.561,-252 980.561,-216 1089.439,-216 1089.439,-252"/>
<text text-anchor="middle" x="1035" y="-229.8" font-family="Times,serif" font-size="14.00" fill="#000000">AppComponent </text>
</g>
<!-- AppModule&#45;&gt;AppComponent  -->
<g id="edge14" class="edge">
<title>AppModule&#45;&gt;AppComponent </title>
<path fill="none" stroke="#000000" stroke-dasharray="1,5" d="M1035,-187.1061C1035,-187.1061 1035,-205.991 1035,-205.991"/>
<polygon fill="#000000" stroke="#000000" points="1031.5001,-205.9909 1035,-215.991 1038.5001,-205.991 1031.5001,-205.9909"/>
</g>
<!-- AppRoutingModule -->
<g id="node13" class="node">
<title>AppRoutingModule</title>
<polygon fill="#8dd3c7" stroke="#000000" points="471.2744,-122 468.2744,-126 447.2744,-126 444.2744,-122 342.7256,-122 342.7256,-86 471.2744,-86 471.2744,-122"/>
<text text-anchor="middle" x="407" y="-99.8" font-family="Times,serif" font-size="14.00" fill="#000000">AppRoutingModule</text>
</g>
<!-- AppRoutingModule&#45;&gt;AppModule -->
<g id="edge12" class="edge">
<title>AppRoutingModule&#45;&gt;AppModule</title>
<path fill="none" stroke="#000000" d="M407,-122.2228C407,-142.3652 407,-172 407,-172 407,-172 983.3088,-172 983.3088,-172"/>
<polygon fill="#000000" stroke="#000000" points="983.3089,-175.5001 993.3088,-172 983.3088,-168.5001 983.3089,-175.5001"/>
</g>
<!-- MaterialModule -->
<g id="node14" class="node">
<title>MaterialModule</title>
<polygon fill="#8dd3c7" stroke="#000000" points="324.4706,-122 321.4706,-126 300.4706,-126 297.4706,-122 217.5294,-122 217.5294,-86 324.4706,-86 324.4706,-122"/>
<text text-anchor="middle" x="271" y="-99.8" font-family="Times,serif" font-size="14.00" fill="#000000">MaterialModule</text>
</g>
<!-- MaterialModule&#45;&gt;AppModule -->
<g id="edge13" class="edge">
<title>MaterialModule&#45;&gt;AppModule</title>
<path fill="none" stroke="#000000" d="M271,-122.0449C271,-143.6623 271,-177 271,-177 271,-177 983.109,-177 983.109,-177"/>
<polygon fill="#000000" stroke="#000000" points="983.1091,-180.5001 993.109,-177 983.109,-173.5001 983.1091,-180.5001"/>
</g>
<!-- ComponentService -->
<g id="node16" class="node">
<title>ComponentService</title>
<ellipse fill="#fdb462" stroke="#000000" cx="109" cy="-104" rx="85.114" ry="18"/>
<text text-anchor="middle" x="109" y="-99.8" font-family="Times,serif" font-size="14.00" fill="#000000">ComponentService</text>
</g>
<!-- ComponentService&#45;&gt;AppModule -->
<g id="edge15" class="edge">
<title>ComponentService&#45;&gt;AppModule</title>
<path fill="none" stroke="#000000" d="M109,-122.0908C109,-145.1328 109,-182 109,-182 109,-182 983.1096,-182 983.1096,-182"/>
<polygon fill="#000000" stroke="#000000" points="983.1096,-185.5001 993.1096,-182 983.1096,-178.5001 983.1096,-185.5001"/>
</g>
</g>
</svg>
