<?xml version="1.0" encoding="UTF-8" standalone="no"?>
<!DOCTYPE svg PUBLIC "-//W3C//DTD SVG 1.1//EN"
 "http://www.w3.org/Graphics/SVG/1.1/DTD/svg11.dtd">
<!-- Generated by graphviz version 2.40.1 (20161225.0304)
 -->
<!-- Title: dependencies Pages: 1 -->
<svg width="1986pt" height="284pt"
 viewBox="0.00 0.00 1986.00 284.00" xmlns="http://www.w3.org/2000/svg" xmlns:xlink="http://www.w3.org/1999/xlink">
<g id="graph0" class="graph" transform="scale(1 1) rotate(0) translate(4 280)">
<title>dependencies</title>
<polygon fill="#ffffff" stroke="transparent" points="-4,4 -4,-280 1982,-280 1982,4 -4,4"/>
<text text-anchor="start" x="968.0091" y="-42.4" font-family="sans-serif" font-weight="bold" font-size="14.00" fill="#000000">Legend</text>
<polygon fill="#ffffb3" stroke="transparent" points="755,-10 755,-30 775,-30 775,-10 755,-10"/>
<text text-anchor="start" x="778.629" y="-15.4" font-family="sans-serif" font-size="14.00" fill="#000000"> &#160;Declarations</text>
<polygon fill="#8dd3c7" stroke="transparent" points="868,-10 868,-30 888,-30 888,-10 868,-10"/>
<text text-anchor="start" x="891.7251" y="-15.4" font-family="sans-serif" font-size="14.00" fill="#000000"> &#160;Module</text>
<polygon fill="#80b1d3" stroke="transparent" points="954,-10 954,-30 974,-30 974,-10 954,-10"/>
<text text-anchor="start" x="977.7812" y="-15.4" font-family="sans-serif" font-size="14.00" fill="#000000"> &#160;Bootstrap</text>
<polygon fill="#fdb462" stroke="transparent" points="1051,-10 1051,-30 1071,-30 1071,-10 1051,-10"/>
<text text-anchor="start" x="1074.6732" y="-15.4" font-family="sans-serif" font-size="14.00" fill="#000000"> &#160;Providers</text>
<polygon fill="#fb8072" stroke="transparent" points="1147,-10 1147,-30 1167,-30 1167,-10 1147,-10"/>
<text text-anchor="start" x="1170.7258" y="-15.4" font-family="sans-serif" font-size="14.00" fill="#000000"> &#160;Exports</text>
<g id="clust1" class="cluster">
<title>cluster_AppModule</title>
<polygon fill="none" stroke="#000000" stroke-dasharray="1,5" points="8,-70 8,-268 1970,-268 1970,-70 8,-70"/>
</g>
<g id="clust2" class="cluster">
<title>cluster_AppModule_declarations</title>
<polygon fill="none" stroke="#000000" points="487,-78 487,-130 1962,-130 1962,-78 487,-78"/>
</g>
<g id="clust13" class="cluster">
<title>cluster_AppModule_imports</title>
<polygon fill="none" stroke="#000000" points="210,-78 210,-130 479,-130 479,-78 210,-78"/>
</g>
<g id="clust15" class="cluster">
<title>cluster_AppModule_bootstrap</title>
<polygon fill="none" stroke="#000000" points="915,-208 915,-260 1039,-260 1039,-208 915,-208"/>
</g>
<g id="clust16" class="cluster">
<title>cluster_AppModule_providers</title>
<polygon fill="none" stroke="#000000" points="16,-78 16,-130 202,-130 202,-78 16,-78"/>
</g>
<!-- ApiComponent -->
<g id="node1" class="node">
<title>ApiComponent</title>
<polygon fill="#ffffb3" stroke="#000000" points="1954.3301,-122 1851.6699,-122 1851.6699,-86 1954.3301,-86 1954.3301,-122"/>
<text text-anchor="middle" x="1903" y="-99.8" font-family="Times,serif" font-size="14.00" fill="#000000">ApiComponent</text>
</g>
<!-- AppModule -->
<g id="node11" class="node">
<title>AppModule</title>
<polygon fill="#8dd3c7" stroke="#000000" points="1018.6571,-187 1015.6571,-191 994.6571,-191 991.6571,-187 935.3429,-187 935.3429,-151 1018.6571,-151 1018.6571,-187"/>
<text text-anchor="middle" x="977" y="-164.8" font-family="Times,serif" font-size="14.00" fill="#000000">AppModule</text>
</g>
<!-- ApiComponent&#45;&gt;AppModule -->
<g id="edge1" class="edge">
<title>ApiComponent&#45;&gt;AppModule</title>
<path fill="none" stroke="#000000" d="M1903,-122.0908C1903,-145.1328 1903,-182 1903,-182 1903,-182 1028.8904,-182 1028.8904,-182"/>
<polygon fill="#000000" stroke="#000000" points="1028.8904,-178.5001 1018.8904,-182 1028.8904,-185.5001 1028.8904,-178.5001"/>
</g>
<!-- AppComponent -->
<g id="node2" class="node">
<title>AppComponent</title>
<polygon fill="#ffffb3" stroke="#000000" points="1833.9399,-122 1728.0601,-122 1728.0601,-86 1833.9399,-86 1833.9399,-122"/>
<text text-anchor="middle" x="1781" y="-99.8" font-family="Times,serif" font-size="14.00" fill="#000000">AppComponent</text>
</g>
<!-- AppComponent&#45;&gt;AppModule -->
<g id="edge2" class="edge">
<title>AppComponent&#45;&gt;AppModule</title>
<path fill="none" stroke="#000000" d="M1781,-122.0449C1781,-143.6623 1781,-177 1781,-177 1781,-177 1028.8136,-177 1028.8136,-177"/>
<polygon fill="#000000" stroke="#000000" points="1028.8136,-173.5001 1018.8136,-177 1028.8136,-180.5001 1028.8136,-173.5001"/>
</g>
<!-- CodepenComponent -->
<g id="node3" class="node">
<title>CodepenComponent</title>
<polygon fill="#ffffb3" stroke="#000000" points="1710.5982,-122 1579.4018,-122 1579.4018,-86 1710.5982,-86 1710.5982,-122"/>
<text text-anchor="middle" x="1645" y="-99.8" font-family="Times,serif" font-size="14.00" fill="#000000">CodepenComponent</text>
</g>
<!-- CodepenComponent&#45;&gt;AppModule -->
<g id="edge3" class="edge">
<title>CodepenComponent&#45;&gt;AppModule</title>
<path fill="none" stroke="#000000" d="M1645,-122.2228C1645,-142.3652 1645,-172 1645,-172 1645,-172 1028.7864,-172 1028.7864,-172"/>
<polygon fill="#000000" stroke="#000000" points="1028.7864,-168.5001 1018.7864,-172 1028.7864,-175.5001 1028.7864,-168.5001"/>
</g>
<!-- ComponentLoaderDirective -->
<g id="node4" class="node">
<title>ComponentLoaderDirective</title>
<polygon fill="#ffffb3" stroke="#000000" points="1561.5576,-122 1388.4424,-122 1388.4424,-86 1561.5576,-86 1561.5576,-122"/>
<text text-anchor="middle" x="1475" y="-99.8" font-family="Times,serif" font-size="14.00" fill="#000000">ComponentLoaderDirective</text>
</g>
<!-- ComponentLoaderDirective&#45;&gt;AppModule -->
<g id="edge4" class="edge">
<title>ComponentLoaderDirective&#45;&gt;AppModule</title>
<path fill="none" stroke="#000000" d="M1475,-122.2222C1475,-140.8285 1475,-167 1475,-167 1475,-167 1029.03,-167 1029.03,-167"/>
<polygon fill="#000000" stroke="#000000" points="1029.03,-163.5001 1019.03,-167 1029.03,-170.5001 1029.03,-163.5001"/>
</g>
<!-- ComponentsComponent -->
<g id="node5" class="node">
<title>ComponentsComponent</title>
<polygon fill="#ffffb3" stroke="#000000" points="1370.1094,-122 1217.8906,-122 1217.8906,-86 1370.1094,-86 1370.1094,-122"/>
<text text-anchor="middle" x="1294" y="-99.8" font-family="Times,serif" font-size="14.00" fill="#000000">ComponentsComponent</text>
</g>
<!-- ComponentsComponent&#45;&gt;AppModule -->
<g id="edge5" class="edge">
<title>ComponentsComponent&#45;&gt;AppModule</title>
<path fill="none" stroke="#000000" d="M1294,-122.0336C1294,-139.0597 1294,-162 1294,-162 1294,-162 1028.7682,-162 1028.7682,-162"/>
<polygon fill="#000000" stroke="#000000" points="1028.7682,-158.5001 1018.7682,-162 1028.7682,-165.5001 1028.7682,-158.5001"/>
</g>
<!-- DescriptionComponent -->
<g id="node6" class="node">
<title>DescriptionComponent</title>
<polygon fill="#ffffb3" stroke="#000000" points="1200.1456,-122 1053.8544,-122 1053.8544,-86 1200.1456,-86 1200.1456,-122"/>
<text text-anchor="middle" x="1127" y="-99.8" font-family="Times,serif" font-size="14.00" fill="#000000">DescriptionComponent</text>
</g>
<!-- DescriptionComponent&#45;&gt;AppModule -->
<g id="edge6" class="edge">
<title>DescriptionComponent&#45;&gt;AppModule</title>
<path fill="none" stroke="#000000" d="M1127,-122.2396C1127,-137.5706 1127,-157 1127,-157 1127,-157 1028.7834,-157 1028.7834,-157"/>
<polygon fill="#000000" stroke="#000000" points="1028.7834,-153.5001 1018.7834,-157 1028.7833,-160.5001 1028.7834,-153.5001"/>
</g>
<!-- FooterComponent -->
<g id="node7" class="node">
<title>FooterComponent</title>
<polygon fill="#ffffb3" stroke="#000000" points="1035.8809,-122 918.1191,-122 918.1191,-86 1035.8809,-86 1035.8809,-122"/>
<text text-anchor="middle" x="977" y="-99.8" font-family="Times,serif" font-size="14.00" fill="#000000">FooterComponent</text>
</g>
<!-- FooterComponent&#45;&gt;AppModule -->
<g id="edge7" class="edge">
<title>FooterComponent&#45;&gt;AppModule</title>
<path fill="none" stroke="#000000" d="M977,-122.1061C977,-122.1061 977,-140.991 977,-140.991"/>
<polygon fill="#000000" stroke="#000000" points="973.5001,-140.9909 977,-150.991 980.5001,-140.991 973.5001,-140.9909"/>
</g>
<!-- HeaderComponent -->
<g id="node8" class="node">
<title>HeaderComponent</title>
<polygon fill="#ffffb3" stroke="#000000" points="899.7437,-122 778.2563,-122 778.2563,-86 899.7437,-86 899.7437,-122"/>
<text text-anchor="middle" x="839" y="-99.8" font-family="Times,serif" font-size="14.00" fill="#000000">HeaderComponent</text>
</g>
<!-- HeaderComponent&#45;&gt;AppModule -->
<g id="edge8" class="edge">
<title>HeaderComponent&#45;&gt;AppModule</title>
<path fill="none" stroke="#000000" d="M839,-122.2396C839,-137.5706 839,-157 839,-157 839,-157 925.221,-157 925.221,-157"/>
<polygon fill="#000000" stroke="#000000" points="925.221,-160.5001 935.221,-157 925.2209,-153.5001 925.221,-160.5001"/>
</g>
<!-- MainComponent -->
<g id="node9" class="node">
<title>MainComponent</title>
<polygon fill="#ffffb3" stroke="#000000" points="760.3823,-122 649.6177,-122 649.6177,-86 760.3823,-86 760.3823,-122"/>
<text text-anchor="middle" x="705" y="-99.8" font-family="Times,serif" font-size="14.00" fill="#000000">MainComponent</text>
</g>
<!-- MainComponent&#45;&gt;AppModule -->
<g id="edge9" class="edge">
<title>MainComponent&#45;&gt;AppModule</title>
<path fill="none" stroke="#000000" d="M705,-122.0336C705,-139.0597 705,-162 705,-162 705,-162 925.0961,-162 925.0961,-162"/>
<polygon fill="#000000" stroke="#000000" points="925.0961,-165.5001 935.0961,-162 925.0961,-158.5001 925.0961,-165.5001"/>
</g>
<!-- OverviewComponent -->
<g id="node10" class="node">
<title>OverviewComponent</title>
<polygon fill="#ffffb3" stroke="#000000" points="631.0268,-122 494.9732,-122 494.9732,-86 631.0268,-86 631.0268,-122"/>
<text text-anchor="middle" x="563" y="-99.8" font-family="Times,serif" font-size="14.00" fill="#000000">OverviewComponent</text>
</g>
<!-- OverviewComponent&#45;&gt;AppModule -->
<g id="edge10" class="edge">
<title>OverviewComponent&#45;&gt;AppModule</title>
<path fill="none" stroke="#000000" d="M563,-122.2222C563,-140.8285 563,-167 563,-167 563,-167 925.0252,-167 925.0252,-167"/>
<polygon fill="#000000" stroke="#000000" points="925.0252,-170.5001 935.0252,-167 925.0251,-163.5001 925.0252,-170.5001"/>
</g>
<!-- AppComponent  -->
<g id="node14" class="node">
<title>AppComponent </title>
<polygon fill="#80b1d3" stroke="#000000" points="1031.439,-252 922.561,-252 922.561,-216 1031.439,-216 1031.439,-252"/>
<text text-anchor="middle" x="977" y="-229.8" font-family="Times,serif" font-size="14.00" fill="#000000">AppComponent </text>
</g>
<!-- AppModule&#45;&gt;AppComponent  -->
<g id="edge13" class="edge">
<title>AppModule&#45;&gt;AppComponent </title>
<path fill="none" stroke="#000000" stroke-dasharray="1,5" d="M977,-187.1061C977,-187.1061 977,-205.991 977,-205.991"/>
<polygon fill="#000000" stroke="#000000" points="973.5001,-205.9909 977,-215.991 980.5001,-205.991 973.5001,-205.9909"/>
</g>
<!-- AppRoutingModule -->
<g id="node12" class="node">
<title>AppRoutingModule</title>
<polygon fill="#8dd3c7" stroke="#000000" points="471.2744,-122 468.2744,-126 447.2744,-126 444.2744,-122 342.7256,-122 342.7256,-86 471.2744,-86 471.2744,-122"/>
<text text-anchor="middle" x="407" y="-99.8" font-family="Times,serif" font-size="14.00" fill="#000000">AppRoutingModule</text>
</g>
<!-- AppRoutingModule&#45;&gt;AppModule -->
<g id="edge11" class="edge">
<title>AppRoutingModule&#45;&gt;AppModule</title>
<path fill="none" stroke="#000000" d="M407,-122.2228C407,-142.3652 407,-172 407,-172 407,-172 925.0865,-172 925.0865,-172"/>
<polygon fill="#000000" stroke="#000000" points="925.0866,-175.5001 935.0865,-172 925.0865,-168.5001 925.0866,-175.5001"/>
</g>
<!-- MaterialModule -->
<g id="node13" class="node">
<title>MaterialModule</title>
<polygon fill="#8dd3c7" stroke="#000000" points="324.4706,-122 321.4706,-126 300.4706,-126 297.4706,-122 217.5294,-122 217.5294,-86 324.4706,-86 324.4706,-122"/>
<text text-anchor="middle" x="271" y="-99.8" font-family="Times,serif" font-size="14.00" fill="#000000">MaterialModule</text>
</g>
<!-- MaterialModule&#45;&gt;AppModule -->
<g id="edge12" class="edge">
<title>MaterialModule&#45;&gt;AppModule</title>
<path fill="none" stroke="#000000" d="M271,-122.0449C271,-143.6623 271,-177 271,-177 271,-177 925.2119,-177 925.2119,-177"/>
<polygon fill="#000000" stroke="#000000" points="925.2119,-180.5001 935.2119,-177 925.2118,-173.5001 925.2119,-180.5001"/>
</g>
<!-- ComponentService -->
<g id="node15" class="node">
<title>ComponentService</title>
<ellipse fill="#fdb462" stroke="#000000" cx="109" cy="-104" rx="85.114" ry="18"/>
<text text-anchor="middle" x="109" y="-99.8" font-family="Times,serif" font-size="14.00" fill="#000000">ComponentService</text>
</g>
<!-- ComponentService&#45;&gt;AppModule -->
<g id="edge14" class="edge">
<title>ComponentService&#45;&gt;AppModule</title>
<path fill="none" stroke="#000000" d="M109,-122.0908C109,-145.1328 109,-182 109,-182 109,-182 925.1346,-182 925.1346,-182"/>
<polygon fill="#000000" stroke="#000000" points="925.1346,-185.5001 935.1346,-182 925.1345,-178.5001 925.1346,-185.5001"/>
</g>
</g>
</svg>
