<?xml version="1.0" encoding="UTF-8" standalone="no"?>
<!DOCTYPE svg PUBLIC "-//W3C//DTD SVG 1.1//EN"
 "http://www.w3.org/Graphics/SVG/1.1/DTD/svg11.dtd">
<!-- Generated by graphviz version 2.40.1 (20161225.0304)
 -->
<!-- Title: dependencies Pages: 1 -->
<svg width="1640pt" height="284pt"
 viewBox="0.00 0.00 1640.00 284.00" xmlns="http://www.w3.org/2000/svg" xmlns:xlink="http://www.w3.org/1999/xlink">
<g id="graph0" class="graph" transform="scale(1 1) rotate(0) translate(4 280)">
<title>dependencies</title>
<polygon fill="#ffffff" stroke="transparent" points="-4,4 -4,-280 1636,-280 1636,4 -4,4"/>
<text text-anchor="start" x="795.0091" y="-42.4" font-family="sans-serif" font-weight="bold" font-size="14.00" fill="#000000">Legend</text>
<polygon fill="#ffffb3" stroke="transparent" points="582,-10 582,-30 602,-30 602,-10 582,-10"/>
<text text-anchor="start" x="605.629" y="-15.4" font-family="sans-serif" font-size="14.00" fill="#000000"> &#160;Declarations</text>
<polygon fill="#8dd3c7" stroke="transparent" points="695,-10 695,-30 715,-30 715,-10 695,-10"/>
<text text-anchor="start" x="718.7251" y="-15.4" font-family="sans-serif" font-size="14.00" fill="#000000"> &#160;Module</text>
<polygon fill="#80b1d3" stroke="transparent" points="781,-10 781,-30 801,-30 801,-10 781,-10"/>
<text text-anchor="start" x="804.7812" y="-15.4" font-family="sans-serif" font-size="14.00" fill="#000000"> &#160;Bootstrap</text>
<polygon fill="#fdb462" stroke="transparent" points="878,-10 878,-30 898,-30 898,-10 878,-10"/>
<text text-anchor="start" x="901.6732" y="-15.4" font-family="sans-serif" font-size="14.00" fill="#000000"> &#160;Providers</text>
<polygon fill="#fb8072" stroke="transparent" points="974,-10 974,-30 994,-30 994,-10 974,-10"/>
<text text-anchor="start" x="997.7258" y="-15.4" font-family="sans-serif" font-size="14.00" fill="#000000"> &#160;Exports</text>
<g id="clust1" class="cluster">
<title>cluster_AppModule</title>
<polygon fill="none" stroke="#000000" stroke-dasharray="1,5" points="8,-70 8,-268 1624,-268 1624,-70 8,-70"/>
</g>
<g id="clust2" class="cluster">
<title>cluster_AppModule_declarations</title>
<polygon fill="none" stroke="#000000" points="487,-78 487,-130 1616,-130 1616,-78 487,-78"/>
</g>
<g id="clust11" class="cluster">
<title>cluster_AppModule_imports</title>
<polygon fill="none" stroke="#000000" points="210,-78 210,-130 479,-130 479,-78 210,-78"/>
</g>
<g id="clust13" class="cluster">
<title>cluster_AppModule_bootstrap</title>
<polygon fill="none" stroke="#000000" points="760,-208 760,-260 884,-260 884,-208 760,-208"/>
</g>
<g id="clust14" class="cluster">
<title>cluster_AppModule_providers</title>
<polygon fill="none" stroke="#000000" points="16,-78 16,-130 202,-130 202,-78 16,-78"/>
</g>
<!-- ApiComponent -->
<g id="node1" class="node">
<title>ApiComponent</title>
<polygon fill="#ffffb3" stroke="#000000" points="1608.3301,-122 1505.6699,-122 1505.6699,-86 1608.3301,-86 1608.3301,-122"/>
<text text-anchor="middle" x="1557" y="-99.8" font-family="Times,serif" font-size="14.00" fill="#000000">ApiComponent</text>
</g>
<!-- AppModule -->
<g id="node9" class="node">
<title>AppModule</title>
<polygon fill="#8dd3c7" stroke="#000000" points="863.6571,-187 860.6571,-191 839.6571,-191 836.6571,-187 780.3429,-187 780.3429,-151 863.6571,-151 863.6571,-187"/>
<text text-anchor="middle" x="822" y="-164.8" font-family="Times,serif" font-size="14.00" fill="#000000">AppModule</text>
</g>
<!-- ApiComponent&#45;&gt;AppModule -->
<g id="edge1" class="edge">
<title>ApiComponent&#45;&gt;AppModule</title>
<path fill="none" stroke="#000000" d="M1557,-122.2479C1557,-145.0179 1557,-181 1557,-181 1557,-181 873.8893,-181 873.8893,-181"/>
<polygon fill="#000000" stroke="#000000" points="873.8894,-177.5001 863.8893,-181 873.8893,-184.5001 873.8894,-177.5001"/>
</g>
<!-- AppComponent -->
<g id="node2" class="node">
<title>AppComponent</title>
<polygon fill="#ffffb3" stroke="#000000" points="1487.9399,-122 1382.0601,-122 1382.0601,-86 1487.9399,-86 1487.9399,-122"/>
<text text-anchor="middle" x="1435" y="-99.8" font-family="Times,serif" font-size="14.00" fill="#000000">AppComponent</text>
</g>
<!-- AppComponent&#45;&gt;AppModule -->
<g id="edge2" class="edge">
<title>AppComponent&#45;&gt;AppModule</title>
<path fill="none" stroke="#000000" d="M1435,-122.2843C1435,-143.3211 1435,-175 1435,-175 1435,-175 874.134,-175 874.134,-175"/>
<polygon fill="#000000" stroke="#000000" points="874.134,-171.5001 864.134,-175 874.1339,-178.5001 874.134,-171.5001"/>
</g>
<!-- CodepenComponent -->
<g id="node3" class="node">
<title>CodepenComponent</title>
<polygon fill="#ffffb3" stroke="#000000" points="1364.5982,-122 1233.4018,-122 1233.4018,-86 1364.5982,-86 1364.5982,-122"/>
<text text-anchor="middle" x="1299" y="-99.8" font-family="Times,serif" font-size="14.00" fill="#000000">CodepenComponent</text>
</g>
<!-- CodepenComponent&#45;&gt;AppModule -->
<g id="edge3" class="edge">
<title>CodepenComponent&#45;&gt;AppModule</title>
<path fill="none" stroke="#000000" d="M1299,-122.1061C1299,-141.3391 1299,-169 1299,-169 1299,-169 873.9125,-169 873.9125,-169"/>
<polygon fill="#000000" stroke="#000000" points="873.9125,-165.5001 863.9125,-169 873.9125,-172.5001 873.9125,-165.5001"/>
</g>
<!-- ComponentsComponent -->
<g id="node4" class="node">
<title>ComponentsComponent</title>
<polygon fill="#ffffb3" stroke="#000000" points="1215.1094,-122 1062.8906,-122 1062.8906,-86 1215.1094,-86 1215.1094,-122"/>
<text text-anchor="middle" x="1139" y="-99.8" font-family="Times,serif" font-size="14.00" fill="#000000">ComponentsComponent</text>
</g>
<!-- ComponentsComponent&#45;&gt;AppModule -->
<g id="edge4" class="edge">
<title>ComponentsComponent&#45;&gt;AppModule</title>
<path fill="none" stroke="#000000" d="M1139,-122.0225C1139,-139.3734 1139,-163 1139,-163 1139,-163 873.7682,-163 873.7682,-163"/>
<polygon fill="#000000" stroke="#000000" points="873.7682,-159.5001 863.7682,-163 873.7682,-166.5001 873.7682,-159.5001"/>
</g>
<!-- DescriptionComponent -->
<g id="node5" class="node">
<title>DescriptionComponent</title>
<polygon fill="#ffffb3" stroke="#000000" points="1045.1456,-122 898.8544,-122 898.8544,-86 1045.1456,-86 1045.1456,-122"/>
<text text-anchor="middle" x="972" y="-99.8" font-family="Times,serif" font-size="14.00" fill="#000000">DescriptionComponent</text>
</g>
<!-- DescriptionComponent&#45;&gt;AppModule -->
<g id="edge5" class="edge">
<title>DescriptionComponent&#45;&gt;AppModule</title>
<path fill="none" stroke="#000000" d="M972,-122.2396C972,-137.5706 972,-157 972,-157 972,-157 873.7834,-157 873.7834,-157"/>
<polygon fill="#000000" stroke="#000000" points="873.7834,-153.5001 863.7834,-157 873.7833,-160.5001 873.7834,-153.5001"/>
</g>
<!-- FooterComponent -->
<g id="node6" class="node">
<title>FooterComponent</title>
<polygon fill="#ffffb3" stroke="#000000" points="880.8809,-122 763.1191,-122 763.1191,-86 880.8809,-86 880.8809,-122"/>
<text text-anchor="middle" x="822" y="-99.8" font-family="Times,serif" font-size="14.00" fill="#000000">FooterComponent</text>
</g>
<!-- FooterComponent&#45;&gt;AppModule -->
<g id="edge6" class="edge">
<title>FooterComponent&#45;&gt;AppModule</title>
<path fill="none" stroke="#000000" d="M822,-122.1061C822,-122.1061 822,-140.991 822,-140.991"/>
<polygon fill="#000000" stroke="#000000" points="818.5001,-140.9909 822,-150.991 825.5001,-140.991 818.5001,-140.9909"/>
</g>
<!-- HeaderComponent -->
<g id="node7" class="node">
<title>HeaderComponent</title>
<polygon fill="#ffffb3" stroke="#000000" points="744.7437,-122 623.2563,-122 623.2563,-86 744.7437,-86 744.7437,-122"/>
<text text-anchor="middle" x="684" y="-99.8" font-family="Times,serif" font-size="14.00" fill="#000000">HeaderComponent</text>
</g>
<!-- HeaderComponent&#45;&gt;AppModule -->
<g id="edge7" class="edge">
<title>HeaderComponent&#45;&gt;AppModule</title>
<path fill="none" stroke="#000000" d="M684,-122.2396C684,-137.5706 684,-157 684,-157 684,-157 770.221,-157 770.221,-157"/>
<polygon fill="#000000" stroke="#000000" points="770.221,-160.5001 780.221,-157 770.2209,-153.5001 770.221,-160.5001"/>
</g>
<!-- MainComponent -->
<g id="node8" class="node">
<title>MainComponent</title>
<polygon fill="#ffffb3" stroke="#000000" points="605.3823,-122 494.6177,-122 494.6177,-86 605.3823,-86 605.3823,-122"/>
<text text-anchor="middle" x="550" y="-99.8" font-family="Times,serif" font-size="14.00" fill="#000000">MainComponent</text>
</g>
<!-- MainComponent&#45;&gt;AppModule -->
<g id="edge8" class="edge">
<title>MainComponent&#45;&gt;AppModule</title>
<path fill="none" stroke="#000000" d="M550,-122.0225C550,-139.3734 550,-163 550,-163 550,-163 770.0961,-163 770.0961,-163"/>
<polygon fill="#000000" stroke="#000000" points="770.0961,-166.5001 780.0961,-163 770.0961,-159.5001 770.0961,-166.5001"/>
</g>
<!-- AppComponent  -->
<g id="node12" class="node">
<title>AppComponent </title>
<polygon fill="#80b1d3" stroke="#000000" points="876.439,-252 767.561,-252 767.561,-216 876.439,-216 876.439,-252"/>
<text text-anchor="middle" x="822" y="-229.8" font-family="Times,serif" font-size="14.00" fill="#000000">AppComponent </text>
</g>
<!-- AppModule&#45;&gt;AppComponent  -->
<g id="edge11" class="edge">
<title>AppModule&#45;&gt;AppComponent </title>
<path fill="none" stroke="#000000" stroke-dasharray="1,5" d="M822,-187.1061C822,-187.1061 822,-205.991 822,-205.991"/>
<polygon fill="#000000" stroke="#000000" points="818.5001,-205.9909 822,-215.991 825.5001,-205.991 818.5001,-205.9909"/>
</g>
<!-- AppRoutingModule -->
<g id="node10" class="node">
<title>AppRoutingModule</title>
<polygon fill="#8dd3c7" stroke="#000000" points="471.2744,-122 468.2744,-126 447.2744,-126 444.2744,-122 342.7256,-122 342.7256,-86 471.2744,-86 471.2744,-122"/>
<text text-anchor="middle" x="407" y="-99.8" font-family="Times,serif" font-size="14.00" fill="#000000">AppRoutingModule</text>
</g>
<!-- AppRoutingModule&#45;&gt;AppModule -->
<g id="edge9" class="edge">
<title>AppRoutingModule&#45;&gt;AppModule</title>
<path fill="none" stroke="#000000" d="M407,-122.1061C407,-141.3391 407,-169 407,-169 407,-169 770.3081,-169 770.3081,-169"/>
<polygon fill="#000000" stroke="#000000" points="770.3081,-172.5001 780.3081,-169 770.3081,-165.5001 770.3081,-172.5001"/>
</g>
<!-- MaterialModule -->
<g id="node11" class="node">
<title>MaterialModule</title>
<polygon fill="#8dd3c7" stroke="#000000" points="324.4706,-122 321.4706,-126 300.4706,-126 297.4706,-122 217.5294,-122 217.5294,-86 324.4706,-86 324.4706,-122"/>
<text text-anchor="middle" x="271" y="-99.8" font-family="Times,serif" font-size="14.00" fill="#000000">MaterialModule</text>
</g>
<!-- MaterialModule&#45;&gt;AppModule -->
<g id="edge10" class="edge">
<title>MaterialModule&#45;&gt;AppModule</title>
<path fill="none" stroke="#000000" d="M271,-122.2843C271,-143.3211 271,-175 271,-175 271,-175 770.1332,-175 770.1332,-175"/>
<polygon fill="#000000" stroke="#000000" points="770.1332,-178.5001 780.1332,-175 770.1332,-171.5001 770.1332,-178.5001"/>
</g>
<!-- ComponentService -->
<g id="node13" class="node">
<title>ComponentService</title>
<ellipse fill="#fdb462" stroke="#000000" cx="109" cy="-104" rx="85.114" ry="18"/>
<text text-anchor="middle" x="109" y="-99.8" font-family="Times,serif" font-size="14.00" fill="#000000">ComponentService</text>
</g>
<!-- ComponentService&#45;&gt;AppModule -->
<g id="edge12" class="edge">
<title>ComponentService&#45;&gt;AppModule</title>
<path fill="none" stroke="#000000" d="M109,-122.2479C109,-145.0179 109,-181 109,-181 109,-181 770.3227,-181 770.3227,-181"/>
<polygon fill="#000000" stroke="#000000" points="770.3228,-184.5001 780.3227,-181 770.3227,-177.5001 770.3228,-184.5001"/>
</g>
</g>
</svg>
