<?xml version="1.0" encoding="UTF-8" standalone="no"?>
<!DOCTYPE svg PUBLIC "-//W3C//DTD SVG 1.1//EN"
 "http://www.w3.org/Graphics/SVG/1.1/DTD/svg11.dtd">
<!-- Generated by graphviz version 2.40.1 (20161225.0304)
 -->
<!-- Title: dependencies Pages: 1 -->
<svg width="2106pt" height="284pt"
 viewBox="0.00 0.00 2106.00 284.00" xmlns="http://www.w3.org/2000/svg" xmlns:xlink="http://www.w3.org/1999/xlink">
<g id="graph0" class="graph" transform="scale(1 1) rotate(0) translate(4 280)">
<title>dependencies</title>
<polygon fill="#ffffff" stroke="transparent" points="-4,4 -4,-280 2102,-280 2102,4 -4,4"/>
<text text-anchor="start" x="1028.0091" y="-42.4" font-family="sans-serif" font-weight="bold" font-size="14.00" fill="#000000">Legend</text>
<polygon fill="#ffffb3" stroke="transparent" points="815,-10 815,-30 835,-30 835,-10 815,-10"/>
<text text-anchor="start" x="838.629" y="-15.4" font-family="sans-serif" font-size="14.00" fill="#000000"> &#160;Declarations</text>
<polygon fill="#8dd3c7" stroke="transparent" points="928,-10 928,-30 948,-30 948,-10 928,-10"/>
<text text-anchor="start" x="951.7251" y="-15.4" font-family="sans-serif" font-size="14.00" fill="#000000"> &#160;Module</text>
<polygon fill="#80b1d3" stroke="transparent" points="1014,-10 1014,-30 1034,-30 1034,-10 1014,-10"/>
<text text-anchor="start" x="1037.7812" y="-15.4" font-family="sans-serif" font-size="14.00" fill="#000000"> &#160;Bootstrap</text>
<polygon fill="#fdb462" stroke="transparent" points="1111,-10 1111,-30 1131,-30 1131,-10 1111,-10"/>
<text text-anchor="start" x="1134.6732" y="-15.4" font-family="sans-serif" font-size="14.00" fill="#000000"> &#160;Providers</text>
<polygon fill="#fb8072" stroke="transparent" points="1207,-10 1207,-30 1227,-30 1227,-10 1207,-10"/>
<text text-anchor="start" x="1230.7258" y="-15.4" font-family="sans-serif" font-size="14.00" fill="#000000"> &#160;Exports</text>
<g id="clust1" class="cluster">
<title>cluster_AppModule</title>
<polygon fill="none" stroke="#000000" stroke-dasharray="1,5" points="8,-70 8,-268 2090,-268 2090,-70 8,-70"/>
</g>
<g id="clust2" class="cluster">
<title>cluster_AppModule_declarations</title>
<polygon fill="none" stroke="#000000" points="487,-78 487,-130 2082,-130 2082,-78 487,-78"/>
</g>
<g id="clust14" class="cluster">
<title>cluster_AppModule_imports</title>
<polygon fill="none" stroke="#000000" points="210,-78 210,-130 479,-130 479,-78 210,-78"/>
</g>
<g id="clust16" class="cluster">
<title>cluster_AppModule_bootstrap</title>
<polygon fill="none" stroke="#000000" points="966,-208 966,-260 1090,-260 1090,-208 966,-208"/>
</g>
<g id="clust17" class="cluster">
<title>cluster_AppModule_providers</title>
<polygon fill="none" stroke="#000000" points="16,-78 16,-130 202,-130 202,-78 16,-78"/>
</g>
<!-- ApiComponent -->
<g id="node1" class="node">
<title>ApiComponent</title>
<polygon fill="#ffffb3" stroke="#000000" points="2074.3301,-122 1971.6699,-122 1971.6699,-86 2074.3301,-86 2074.3301,-122"/>
<text text-anchor="middle" x="2023" y="-99.8" font-family="Times,serif" font-size="14.00" fill="#000000">ApiComponent</text>
</g>
<!-- AppModule -->
<g id="node12" class="node">
<title>AppModule</title>
<polygon fill="#8dd3c7" stroke="#000000" points="1069.6571,-187 1066.6571,-191 1045.6571,-191 1042.6571,-187 986.3429,-187 986.3429,-151 1069.6571,-151 1069.6571,-187"/>
<text text-anchor="middle" x="1028" y="-164.8" font-family="Times,serif" font-size="14.00" fill="#000000">AppModule</text>
</g>
<!-- ApiComponent&#45;&gt;AppModule -->
<g id="edge1" class="edge">
<title>ApiComponent&#45;&gt;AppModule</title>
<path fill="none" stroke="#000000" d="M2023,-122.0908C2023,-145.1328 2023,-182 2023,-182 2023,-182 1079.8022,-182 1079.8022,-182"/>
<polygon fill="#000000" stroke="#000000" points="1079.8023,-178.5001 1069.8022,-182 1079.8022,-185.5001 1079.8023,-178.5001"/>
</g>
<!-- AppComponent -->
<g id="node2" class="node">
<title>AppComponent</title>
<polygon fill="#ffffb3" stroke="#000000" points="1953.9399,-122 1848.0601,-122 1848.0601,-86 1953.9399,-86 1953.9399,-122"/>
<text text-anchor="middle" x="1901" y="-99.8" font-family="Times,serif" font-size="14.00" fill="#000000">AppComponent</text>
</g>
<!-- AppComponent&#45;&gt;AppModule -->
<g id="edge2" class="edge">
<title>AppComponent&#45;&gt;AppModule</title>
<path fill="none" stroke="#000000" d="M1901,-122.0449C1901,-143.6623 1901,-177 1901,-177 1901,-177 1079.8125,-177 1079.8125,-177"/>
<polygon fill="#000000" stroke="#000000" points="1079.8125,-173.5001 1069.8125,-177 1079.8125,-180.5001 1079.8125,-173.5001"/>
</g>
<!-- CodepenComponent -->
<g id="node3" class="node">
<title>CodepenComponent</title>
<polygon fill="#ffffb3" stroke="#000000" points="1830.5982,-122 1699.4018,-122 1699.4018,-86 1830.5982,-86 1830.5982,-122"/>
<text text-anchor="middle" x="1765" y="-99.8" font-family="Times,serif" font-size="14.00" fill="#000000">CodepenComponent</text>
</g>
<!-- CodepenComponent&#45;&gt;AppModule -->
<g id="edge3" class="edge">
<title>CodepenComponent&#45;&gt;AppModule</title>
<path fill="none" stroke="#000000" d="M1765,-122.2228C1765,-142.3652 1765,-172 1765,-172 1765,-172 1079.736,-172 1079.736,-172"/>
<polygon fill="#000000" stroke="#000000" points="1079.736,-168.5001 1069.736,-172 1079.7359,-175.5001 1079.736,-168.5001"/>
</g>
<!-- ComponentLoaderDirective -->
<g id="node4" class="node">
<title>ComponentLoaderDirective</title>
<polygon fill="#ffffb3" stroke="#000000" points="1681.5576,-122 1508.4424,-122 1508.4424,-86 1681.5576,-86 1681.5576,-122"/>
<text text-anchor="middle" x="1595" y="-99.8" font-family="Times,serif" font-size="14.00" fill="#000000">ComponentLoaderDirective</text>
</g>
<!-- ComponentLoaderDirective&#45;&gt;AppModule -->
<g id="edge4" class="edge">
<title>ComponentLoaderDirective&#45;&gt;AppModule</title>
<path fill="none" stroke="#000000" d="M1595,-122.2222C1595,-140.8285 1595,-167 1595,-167 1595,-167 1079.6929,-167 1079.6929,-167"/>
<polygon fill="#000000" stroke="#000000" points="1079.6929,-163.5001 1069.6929,-167 1079.6928,-170.5001 1079.6929,-163.5001"/>
</g>
<!-- ComponentsComponent -->
<g id="node5" class="node">
<title>ComponentsComponent</title>
<polygon fill="#ffffb3" stroke="#000000" points="1490.1094,-122 1337.8906,-122 1337.8906,-86 1490.1094,-86 1490.1094,-122"/>
<text text-anchor="middle" x="1414" y="-99.8" font-family="Times,serif" font-size="14.00" fill="#000000">ComponentsComponent</text>
</g>
<!-- ComponentsComponent&#45;&gt;AppModule -->
<g id="edge5" class="edge">
<title>ComponentsComponent&#45;&gt;AppModule</title>
<path fill="none" stroke="#000000" d="M1414,-122.0336C1414,-139.0597 1414,-162 1414,-162 1414,-162 1079.6755,-162 1079.6755,-162"/>
<polygon fill="#000000" stroke="#000000" points="1079.6755,-158.5001 1069.6755,-162 1079.6755,-165.5001 1079.6755,-158.5001"/>
</g>
<!-- DescriptionComponent -->
<g id="node6" class="node">
<title>DescriptionComponent</title>
<polygon fill="#ffffb3" stroke="#000000" points="1320.1456,-122 1173.8544,-122 1173.8544,-86 1320.1456,-86 1320.1456,-122"/>
<text text-anchor="middle" x="1247" y="-99.8" font-family="Times,serif" font-size="14.00" fill="#000000">DescriptionComponent</text>
</g>
<!-- DescriptionComponent&#45;&gt;AppModule -->
<g id="edge6" class="edge">
<title>DescriptionComponent&#45;&gt;AppModule</title>
<path fill="none" stroke="#000000" d="M1247,-122.2396C1247,-137.5706 1247,-157 1247,-157 1247,-157 1079.7077,-157 1079.7077,-157"/>
<polygon fill="#000000" stroke="#000000" points="1079.7077,-153.5001 1069.7077,-157 1079.7077,-160.5001 1079.7077,-153.5001"/>
</g>
<!-- FooterComponent -->
<g id="node7" class="node">
<title>FooterComponent</title>
<polygon fill="#ffffb3" stroke="#000000" points="1155.8809,-122 1038.1191,-122 1038.1191,-86 1155.8809,-86 1155.8809,-122"/>
<text text-anchor="middle" x="1097" y="-99.8" font-family="Times,serif" font-size="14.00" fill="#000000">FooterComponent</text>
</g>
<!-- FooterComponent&#45;&gt;AppModule -->
<g id="edge7" class="edge">
<title>FooterComponent&#45;&gt;AppModule</title>
<path fill="none" stroke="#000000" d="M1053.9439,-122.1061C1053.9439,-122.1061 1053.9439,-140.991 1053.9439,-140.991"/>
<polygon fill="#000000" stroke="#000000" points="1050.444,-140.9909 1053.9439,-150.991 1057.444,-140.991 1050.444,-140.9909"/>
</g>
<!-- HeaderComponent -->
<g id="node8" class="node">
<title>HeaderComponent</title>
<polygon fill="#ffffb3" stroke="#000000" points="1019.7437,-122 898.2563,-122 898.2563,-86 1019.7437,-86 1019.7437,-122"/>
<text text-anchor="middle" x="959" y="-99.8" font-family="Times,serif" font-size="14.00" fill="#000000">HeaderComponent</text>
</g>
<!-- HeaderComponent&#45;&gt;AppModule -->
<g id="edge8" class="edge">
<title>HeaderComponent&#45;&gt;AppModule</title>
<path fill="none" stroke="#000000" d="M1003.0218,-122.1061C1003.0218,-122.1061 1003.0218,-140.991 1003.0218,-140.991"/>
<polygon fill="#000000" stroke="#000000" points="999.5218,-140.9909 1003.0218,-150.991 1006.5218,-140.991 999.5218,-140.9909"/>
</g>
<!-- MainComponent -->
<g id="node9" class="node">
<title>MainComponent</title>
<polygon fill="#ffffb3" stroke="#000000" points="880.3823,-122 769.6177,-122 769.6177,-86 880.3823,-86 880.3823,-122"/>
<text text-anchor="middle" x="825" y="-99.8" font-family="Times,serif" font-size="14.00" fill="#000000">MainComponent</text>
</g>
<!-- MainComponent&#45;&gt;AppModule -->
<g id="edge9" class="edge">
<title>MainComponent&#45;&gt;AppModule</title>
<path fill="none" stroke="#000000" d="M825,-122.2396C825,-137.5706 825,-157 825,-157 825,-157 975.9383,-157 975.9383,-157"/>
<polygon fill="#000000" stroke="#000000" points="975.9383,-160.5001 985.9383,-157 975.9382,-153.5001 975.9383,-160.5001"/>
</g>
<!-- OverviewComponent -->
<g id="node10" class="node">
<title>OverviewComponent</title>
<polygon fill="#ffffb3" stroke="#000000" points="751.0268,-122 614.9732,-122 614.9732,-86 751.0268,-86 751.0268,-122"/>
<text text-anchor="middle" x="683" y="-99.8" font-family="Times,serif" font-size="14.00" fill="#000000">OverviewComponent</text>
</g>
<!-- OverviewComponent&#45;&gt;AppModule -->
<g id="edge10" class="edge">
<title>OverviewComponent&#45;&gt;AppModule</title>
<path fill="none" stroke="#000000" d="M683,-122.0336C683,-139.0597 683,-162 683,-162 683,-162 976.0411,-162 976.0411,-162"/>
<polygon fill="#000000" stroke="#000000" points="976.0412,-165.5001 986.0411,-162 976.0411,-158.5001 976.0412,-165.5001"/>
</g>
<!-- TryComponent -->
<g id="node11" class="node">
<title>TryComponent</title>
<polygon fill="#ffffb3" stroke="#000000" points="596.5466,-122 495.4534,-122 495.4534,-86 596.5466,-86 596.5466,-122"/>
<text text-anchor="middle" x="546" y="-99.8" font-family="Times,serif" font-size="14.00" fill="#000000">TryComponent</text>
</g>
<!-- TryComponent&#45;&gt;AppModule -->
<g id="edge11" class="edge">
<title>TryComponent&#45;&gt;AppModule</title>
<path fill="none" stroke="#000000" d="M546,-122.2222C546,-140.8285 546,-167 546,-167 546,-167 976.0688,-167 976.0688,-167"/>
<polygon fill="#000000" stroke="#000000" points="976.0689,-170.5001 986.0688,-167 976.0688,-163.5001 976.0689,-170.5001"/>
</g>
<!-- AppComponent  -->
<g id="node15" class="node">
<title>AppComponent </title>
<polygon fill="#80b1d3" stroke="#000000" points="1082.439,-252 973.561,-252 973.561,-216 1082.439,-216 1082.439,-252"/>
<text text-anchor="middle" x="1028" y="-229.8" font-family="Times,serif" font-size="14.00" fill="#000000">AppComponent </text>
</g>
<!-- AppModule&#45;&gt;AppComponent  -->
<g id="edge14" class="edge">
<title>AppModule&#45;&gt;AppComponent </title>
<path fill="none" stroke="#000000" stroke-dasharray="1,5" d="M1028,-187.1061C1028,-187.1061 1028,-205.991 1028,-205.991"/>
<polygon fill="#000000" stroke="#000000" points="1024.5001,-205.9909 1028,-215.991 1031.5001,-205.991 1024.5001,-205.9909"/>
</g>
<!-- AppRoutingModule -->
<g id="node13" class="node">
<title>AppRoutingModule</title>
<polygon fill="#8dd3c7" stroke="#000000" points="471.2744,-122 468.2744,-126 447.2744,-126 444.2744,-122 342.7256,-122 342.7256,-86 471.2744,-86 471.2744,-122"/>
<text text-anchor="middle" x="407" y="-99.8" font-family="Times,serif" font-size="14.00" fill="#000000">AppRoutingModule</text>
</g>
<!-- AppRoutingModule&#45;&gt;AppModule -->
<g id="edge12" class="edge">
<title>AppRoutingModule&#45;&gt;AppModule</title>
<path fill="none" stroke="#000000" d="M407,-122.2228C407,-142.3652 407,-172 407,-172 407,-172 976.2902,-172 976.2902,-172"/>
<polygon fill="#000000" stroke="#000000" points="976.2902,-175.5001 986.2902,-172 976.2901,-168.5001 976.2902,-175.5001"/>
</g>
<!-- MaterialModule -->
<g id="node14" class="node">
<title>MaterialModule</title>
<polygon fill="#8dd3c7" stroke="#000000" points="324.4706,-122 321.4706,-126 300.4706,-126 297.4706,-122 217.5294,-122 217.5294,-86 324.4706,-86 324.4706,-122"/>
<text text-anchor="middle" x="271" y="-99.8" font-family="Times,serif" font-size="14.00" fill="#000000">MaterialModule</text>
</g>
<!-- MaterialModule&#45;&gt;AppModule -->
<g id="edge13" class="edge">
<title>MaterialModule&#45;&gt;AppModule</title>
<path fill="none" stroke="#000000" d="M271,-122.0449C271,-143.6623 271,-177 271,-177 271,-177 976.2221,-177 976.2221,-177"/>
<polygon fill="#000000" stroke="#000000" points="976.2221,-180.5001 986.2221,-177 976.2221,-173.5001 976.2221,-180.5001"/>
</g>
<!-- ComponentService -->
<g id="node16" class="node">
<title>ComponentService</title>
<ellipse fill="#fdb462" stroke="#000000" cx="109" cy="-104" rx="85.114" ry="18"/>
<text text-anchor="middle" x="109" y="-99.8" font-family="Times,serif" font-size="14.00" fill="#000000">ComponentService</text>
</g>
<!-- ComponentService&#45;&gt;AppModule -->
<g id="edge15" class="edge">
<title>ComponentService&#45;&gt;AppModule</title>
<path fill="none" stroke="#000000" d="M109,-122.0908C109,-145.1328 109,-182 109,-182 109,-182 976.1244,-182 976.1244,-182"/>
<polygon fill="#000000" stroke="#000000" points="976.1245,-185.5001 986.1244,-182 976.1244,-178.5001 976.1245,-185.5001"/>
</g>
</g>
</svg>
