<?xml version="1.0" encoding="UTF-8" standalone="no"?>
<!DOCTYPE svg PUBLIC "-//W3C//DTD SVG 1.1//EN"
 "http://www.w3.org/Graphics/SVG/1.1/DTD/svg11.dtd">
<!-- Generated by graphviz version 2.40.1 (20161225.0304)
 -->
<!-- Title: dependencies Pages: 1 -->
<svg width="542pt" height="349pt"
 viewBox="0.00 0.00 542.00 349.00" xmlns="http://www.w3.org/2000/svg" xmlns:xlink="http://www.w3.org/1999/xlink">
<g id="graph0" class="graph" transform="scale(1 1) rotate(0) translate(4 345)">
<title>dependencies</title>
<polygon fill="#ffffff" stroke="transparent" points="-4,4 -4,-345 538,-345 538,4 -4,4"/>
<text text-anchor="start" x="246.0091" y="-42.4" font-family="sans-serif" font-weight="bold" font-size="14.00" fill="#000000">Legend</text>
<polygon fill="#ffffb3" stroke="transparent" points="33,-10 33,-30 53,-30 53,-10 33,-10"/>
<text text-anchor="start" x="56.629" y="-15.4" font-family="sans-serif" font-size="14.00" fill="#000000"> &#160;Declarations</text>
<polygon fill="#8dd3c7" stroke="transparent" points="146,-10 146,-30 166,-30 166,-10 146,-10"/>
<text text-anchor="start" x="169.7251" y="-15.4" font-family="sans-serif" font-size="14.00" fill="#000000"> &#160;Module</text>
<polygon fill="#80b1d3" stroke="transparent" points="232,-10 232,-30 252,-30 252,-10 232,-10"/>
<text text-anchor="start" x="255.7812" y="-15.4" font-family="sans-serif" font-size="14.00" fill="#000000"> &#160;Bootstrap</text>
<polygon fill="#fdb462" stroke="transparent" points="329,-10 329,-30 349,-30 349,-10 329,-10"/>
<text text-anchor="start" x="352.6732" y="-15.4" font-family="sans-serif" font-size="14.00" fill="#000000"> &#160;Providers</text>
<polygon fill="#fb8072" stroke="transparent" points="425,-10 425,-30 445,-30 445,-10 425,-10"/>
<text text-anchor="start" x="448.7258" y="-15.4" font-family="sans-serif" font-size="14.00" fill="#000000"> &#160;Exports</text>
<g id="clust1" class="cluster">
<title>cluster_MatMenuModule</title>
<polygon fill="none" stroke="#000000" stroke-dasharray="1,5" points="8,-70 8,-333 526,-333 526,-70 8,-70"/>
</g>
<g id="clust2" class="cluster">
<title>cluster_MatMenuModule_declarations</title>
<polygon fill="none" stroke="#000000" points="16,-143 16,-195 483,-195 483,-143 16,-143"/>
</g>
<g id="clust3" class="cluster">
<title>cluster_MatMenuModule_MatMenu_providers</title>
<polygon fill="none" stroke="#000000" points="16,-78 16,-130 518,-130 518,-78 16,-78"/>
</g>
<g id="clust8" class="cluster">
<title>cluster_MatMenuModule_exports</title>
<polygon fill="none" stroke="#000000" points="26,-273 26,-325 507,-325 507,-273 26,-273"/>
</g>
<!-- MatMenu -->
<g id="node1" class="node">
<title>MatMenu</title>
<polygon fill="#ffffb3" stroke="#000000" points="474.7093,-187 403.2907,-187 403.2907,-151 474.7093,-151 474.7093,-187"/>
<text text-anchor="middle" x="439" y="-164.8" font-family="Times,serif" font-size="14.00" fill="#000000">MatMenu</text>
</g>
<!-- MatMenuModule -->
<g id="node5" class="node">
<title>MatMenuModule</title>
<polygon fill="#8dd3c7" stroke="#000000" points="330.2591,-252 327.2591,-256 306.2591,-256 303.2591,-252 215.7409,-252 215.7409,-216 330.2591,-216 330.2591,-252"/>
<text text-anchor="middle" x="273" y="-229.8" font-family="Times,serif" font-size="14.00" fill="#000000">MatMenuModule</text>
</g>
<!-- MatMenu&#45;&gt;MatMenuModule -->
<g id="edge1" class="edge">
<title>MatMenu&#45;&gt;MatMenuModule</title>
<path fill="none" stroke="#000000" d="M415.5831,-187.0225C415.5831,-204.3734 415.5831,-228 415.5831,-228 415.5831,-228 340.583,-228 340.583,-228"/>
<polygon fill="#000000" stroke="#000000" points="340.583,-224.5001 330.583,-228 340.583,-231.5001 340.583,-224.5001"/>
</g>
<!-- MatMenuContent -->
<g id="node2" class="node">
<title>MatMenuContent</title>
<polygon fill="#ffffb3" stroke="#000000" points="385.5423,-187 270.4577,-187 270.4577,-151 385.5423,-151 385.5423,-187"/>
<text text-anchor="middle" x="328" y="-164.8" font-family="Times,serif" font-size="14.00" fill="#000000">MatMenuContent</text>
</g>
<!-- MatMenuContent&#45;&gt;MatMenuModule -->
<g id="edge3" class="edge">
<title>MatMenuContent&#45;&gt;MatMenuModule</title>
<path fill="none" stroke="#000000" d="M300.3044,-187.1061C300.3044,-187.1061 300.3044,-205.991 300.3044,-205.991"/>
<polygon fill="#000000" stroke="#000000" points="296.8044,-205.9909 300.3044,-215.991 303.8044,-205.991 296.8044,-205.9909"/>
</g>
<!-- MatMenuItem -->
<g id="node3" class="node">
<title>MatMenuItem</title>
<polygon fill="#ffffb3" stroke="#000000" points="252.3655,-187 155.6345,-187 155.6345,-151 252.3655,-151 252.3655,-187"/>
<text text-anchor="middle" x="204" y="-164.8" font-family="Times,serif" font-size="14.00" fill="#000000">MatMenuItem</text>
</g>
<!-- MatMenuItem&#45;&gt;MatMenuModule -->
<g id="edge4" class="edge">
<title>MatMenuItem&#45;&gt;MatMenuModule</title>
<path fill="none" stroke="#000000" d="M234.0267,-187.1061C234.0267,-187.1061 234.0267,-205.991 234.0267,-205.991"/>
<polygon fill="#000000" stroke="#000000" points="230.5267,-205.9909 234.0267,-215.991 237.5267,-205.991 230.5267,-205.9909"/>
</g>
<!-- MatMenuTrigger -->
<g id="node4" class="node">
<title>MatMenuTrigger</title>
<polygon fill="#ffffb3" stroke="#000000" points="137.6882,-187 24.3118,-187 24.3118,-151 137.6882,-151 137.6882,-187"/>
<text text-anchor="middle" x="81" y="-164.8" font-family="Times,serif" font-size="14.00" fill="#000000">MatMenuTrigger</text>
</g>
<!-- MatMenuTrigger&#45;&gt;MatMenuModule -->
<g id="edge5" class="edge">
<title>MatMenuTrigger&#45;&gt;MatMenuModule</title>
<path fill="none" stroke="#000000" d="M85.625,-187.0225C85.625,-204.3734 85.625,-228 85.625,-228 85.625,-228 205.5079,-228 205.5079,-228"/>
<polygon fill="#000000" stroke="#000000" points="205.508,-231.5001 215.5079,-228 205.5079,-224.5001 205.508,-231.5001"/>
</g>
<!-- MatMenu  -->
<g id="node7" class="node">
<title>MatMenu </title>
<polygon fill="#fb8072" stroke="#000000" points="499.2096,-317 424.7904,-317 424.7904,-281 499.2096,-281 499.2096,-317"/>
<text text-anchor="middle" x="462" y="-294.8" font-family="Times,serif" font-size="14.00" fill="#000000">MatMenu </text>
</g>
<!-- MatMenuModule&#45;&gt;MatMenu  -->
<g id="edge6" class="edge">
<title>MatMenuModule&#45;&gt;MatMenu </title>
<path fill="none" stroke="#000000" stroke-dasharray="5,2" d="M330.3451,-240C381.9184,-240 449.625,-240 449.625,-240 449.625,-240 449.625,-270.9775 449.625,-270.9775"/>
<polygon fill="#000000" stroke="#000000" points="446.1251,-270.9774 449.625,-280.9775 453.1251,-270.9775 446.1251,-270.9774"/>
</g>
<!-- MatMenuContent  -->
<g id="node8" class="node">
<title>MatMenuContent </title>
<polygon fill="#fb8072" stroke="#000000" points="406.5414,-317 287.4586,-317 287.4586,-281 406.5414,-281 406.5414,-317"/>
<text text-anchor="middle" x="347" y="-294.8" font-family="Times,serif" font-size="14.00" fill="#000000">MatMenuContent </text>
</g>
<!-- MatMenuModule&#45;&gt;MatMenuContent  -->
<g id="edge7" class="edge">
<title>MatMenuModule&#45;&gt;MatMenuContent </title>
<path fill="none" stroke="#000000" stroke-dasharray="5,2" d="M308.9294,-252.1061C308.9294,-252.1061 308.9294,-270.991 308.9294,-270.991"/>
<polygon fill="#000000" stroke="#000000" points="305.4294,-270.9909 308.9294,-280.991 312.4294,-270.991 305.4294,-270.9909"/>
</g>
<!-- MatMenuItem  -->
<g id="node9" class="node">
<title>MatMenuItem </title>
<polygon fill="#fb8072" stroke="#000000" points="269.3661,-317 168.6339,-317 168.6339,-281 269.3661,-281 269.3661,-317"/>
<text text-anchor="middle" x="219" y="-294.8" font-family="Times,serif" font-size="14.00" fill="#000000">MatMenuItem </text>
</g>
<!-- MatMenuModule&#45;&gt;MatMenuItem  -->
<g id="edge8" class="edge">
<title>MatMenuModule&#45;&gt;MatMenuItem </title>
<path fill="none" stroke="#000000" stroke-dasharray="5,2" d="M242.4017,-252.1061C242.4017,-252.1061 242.4017,-270.991 242.4017,-270.991"/>
<polygon fill="#000000" stroke="#000000" points="238.9017,-270.9909 242.4017,-280.991 245.9017,-270.991 238.9017,-270.9909"/>
</g>
<!-- MatMenuTrigger  -->
<g id="node10" class="node">
<title>MatMenuTrigger </title>
<polygon fill="#fb8072" stroke="#000000" points="150.1884,-317 33.8116,-317 33.8116,-281 150.1884,-281 150.1884,-317"/>
<text text-anchor="middle" x="92" y="-294.8" font-family="Times,serif" font-size="14.00" fill="#000000">MatMenuTrigger </text>
</g>
<!-- MatMenuModule&#45;&gt;MatMenuTrigger  -->
<g id="edge9" class="edge">
<title>MatMenuModule&#45;&gt;MatMenuTrigger </title>
<path fill="none" stroke="#000000" stroke-dasharray="5,2" d="M215.6537,-240C181.1927,-240 143.969,-240 143.969,-240 143.969,-240 143.969,-270.9775 143.969,-270.9775"/>
<polygon fill="#000000" stroke="#000000" points="140.4691,-270.9774 143.969,-280.9775 147.4691,-270.9775 140.4691,-270.9774"/>
</g>
<!-- { provide: MAT_MENU_PANEL, useExisting: MatMenu } -->
<g id="node6" class="node">
<title>{ provide: MAT_MENU_PANEL, useExisting: MatMenu }</title>
<ellipse fill="#fdb462" stroke="#000000" cx="267" cy="-104" rx="243.3985" ry="18"/>
<text text-anchor="middle" x="267" y="-99.8" font-family="Times,serif" font-size="14.00" fill="#000000">{ provide: MAT_MENU_PANEL, useExisting: MatMenu }</text>
</g>
<!-- { provide: MAT_MENU_PANEL, useExisting: MatMenu }&#45;&gt;MatMenu -->
<g id="edge2" class="edge">
<title>{ provide: MAT_MENU_PANEL, useExisting: MatMenu }&#45;&gt;MatMenu</title>
<path fill="none" stroke="#000000" d="M439,-116.8419C439,-116.8419 439,-140.5231 439,-140.5231"/>
<polygon fill="#000000" stroke="#000000" points="435.5001,-140.523 439,-150.5231 442.5001,-140.5231 435.5001,-140.523"/>
</g>
</g>
</svg>
