<?xml version="1.0" encoding="UTF-8" standalone="no"?>
<!DOCTYPE svg PUBLIC "-//W3C//DTD SVG 1.1//EN"
 "http://www.w3.org/Graphics/SVG/1.1/DTD/svg11.dtd">
<!-- Generated by graphviz version 2.40.1 (20161225.0304)
 -->
<!-- Title: dependencies Pages: 1 -->
<svg width="504pt" height="284pt"
 viewBox="0.00 0.00 504.00 284.00" xmlns="http://www.w3.org/2000/svg" xmlns:xlink="http://www.w3.org/1999/xlink">
<g id="graph0" class="graph" transform="scale(1 1) rotate(0) translate(4 280)">
<title>dependencies</title>
<polygon fill="#ffffff" stroke="transparent" points="-4,4 -4,-280 500,-280 500,4 -4,4"/>
<text text-anchor="start" x="227.0091" y="-42.4" font-family="sans-serif" font-weight="bold" font-size="14.00" fill="#000000">Legend</text>
<polygon fill="#ffffb3" stroke="transparent" points="14,-10 14,-30 34,-30 34,-10 14,-10"/>
<text text-anchor="start" x="37.629" y="-15.4" font-family="sans-serif" font-size="14.00" fill="#000000"> &#160;Declarations</text>
<polygon fill="#8dd3c7" stroke="transparent" points="127,-10 127,-30 147,-30 147,-10 127,-10"/>
<text text-anchor="start" x="150.7251" y="-15.4" font-family="sans-serif" font-size="14.00" fill="#000000"> &#160;Module</text>
<polygon fill="#80b1d3" stroke="transparent" points="213,-10 213,-30 233,-30 233,-10 213,-10"/>
<text text-anchor="start" x="236.7812" y="-15.4" font-family="sans-serif" font-size="14.00" fill="#000000"> &#160;Bootstrap</text>
<polygon fill="#fdb462" stroke="transparent" points="310,-10 310,-30 330,-30 330,-10 310,-10"/>
<text text-anchor="start" x="333.6732" y="-15.4" font-family="sans-serif" font-size="14.00" fill="#000000"> &#160;Providers</text>
<polygon fill="#fb8072" stroke="transparent" points="406,-10 406,-30 426,-30 426,-10 406,-10"/>
<text text-anchor="start" x="429.7258" y="-15.4" font-family="sans-serif" font-size="14.00" fill="#000000"> &#160;Exports</text>
<g id="clust1" class="cluster">
<title>cluster_MatButtonModule</title>
<polygon fill="none" stroke="#000000" stroke-dasharray="1,5" points="141,-70 141,-268 355,-268 355,-70 141,-70"/>
</g>
<g id="clust2" class="cluster">
<title>cluster_MatButtonModule_declarations</title>
<polygon fill="none" stroke="#000000" points="152,-78 152,-130 343,-130 343,-78 152,-78"/>
</g>
<g id="clust6" class="cluster">
<title>cluster_MatButtonModule_exports</title>
<polygon fill="none" stroke="#000000" points="149,-208 149,-260 347,-260 347,-208 149,-208"/>
</g>
<!-- MatAnchor -->
<g id="node1" class="node">
<title>MatAnchor</title>
<polygon fill="#ffffb3" stroke="#000000" points="335.033,-122 254.967,-122 254.967,-86 335.033,-86 335.033,-122"/>
<text text-anchor="middle" x="295" y="-99.8" font-family="Times,serif" font-size="14.00" fill="#000000">MatAnchor</text>
</g>
<!-- MatButtonModule -->
<g id="node3" class="node">
<title>MatButtonModule</title>
<polygon fill="#8dd3c7" stroke="#000000" points="308.2176,-187 305.2176,-191 284.2176,-191 281.2176,-187 187.7824,-187 187.7824,-151 308.2176,-151 308.2176,-187"/>
<text text-anchor="middle" x="248" y="-164.8" font-family="Times,serif" font-size="14.00" fill="#000000">MatButtonModule</text>
</g>
<!-- MatAnchor&#45;&gt;MatButtonModule -->
<g id="edge1" class="edge">
<title>MatAnchor&#45;&gt;MatButtonModule</title>
<path fill="none" stroke="#000000" d="M281.4215,-122.1061C281.4215,-122.1061 281.4215,-140.991 281.4215,-140.991"/>
<polygon fill="#000000" stroke="#000000" points="277.9215,-140.9909 281.4215,-150.991 284.9215,-140.991 277.9215,-140.9909"/>
</g>
<!-- MatButton -->
<g id="node2" class="node">
<title>MatButton</title>
<polygon fill="#ffffb3" stroke="#000000" points="236.1683,-122 159.8317,-122 159.8317,-86 236.1683,-86 236.1683,-122"/>
<text text-anchor="middle" x="198" y="-99.8" font-family="Times,serif" font-size="14.00" fill="#000000">MatButton</text>
</g>
<!-- MatButton&#45;&gt;MatButtonModule -->
<g id="edge2" class="edge">
<title>MatButton&#45;&gt;MatButtonModule</title>
<path fill="none" stroke="#000000" d="M212.1126,-122.1061C212.1126,-122.1061 212.1126,-140.991 212.1126,-140.991"/>
<polygon fill="#000000" stroke="#000000" points="208.6126,-140.9909 212.1126,-150.991 215.6126,-140.991 208.6126,-140.9909"/>
</g>
<!-- MatAnchor  -->
<g id="node4" class="node">
<title>MatAnchor </title>
<polygon fill="#fb8072" stroke="#000000" points="339.0316,-252 254.9684,-252 254.9684,-216 339.0316,-216 339.0316,-252"/>
<text text-anchor="middle" x="297" y="-229.8" font-family="Times,serif" font-size="14.00" fill="#000000">MatAnchor </text>
</g>
<!-- MatButtonModule&#45;&gt;MatAnchor  -->
<g id="edge3" class="edge">
<title>MatButtonModule&#45;&gt;MatAnchor </title>
<path fill="none" stroke="#000000" stroke-dasharray="5,2" d="M281.5465,-187.1061C281.5465,-187.1061 281.5465,-205.991 281.5465,-205.991"/>
<polygon fill="#000000" stroke="#000000" points="278.0465,-205.9909 281.5465,-215.991 285.0465,-205.991 278.0465,-205.9909"/>
</g>
<!-- MatButton  -->
<g id="node5" class="node">
<title>MatButton </title>
<polygon fill="#fb8072" stroke="#000000" points="237.1678,-252 156.8322,-252 156.8322,-216 237.1678,-216 237.1678,-252"/>
<text text-anchor="middle" x="197" y="-229.8" font-family="Times,serif" font-size="14.00" fill="#000000">MatButton </text>
</g>
<!-- MatButtonModule&#45;&gt;MatButton  -->
<g id="edge4" class="edge">
<title>MatButtonModule&#45;&gt;MatButton </title>
<path fill="none" stroke="#000000" stroke-dasharray="5,2" d="M212.4876,-187.1061C212.4876,-187.1061 212.4876,-205.991 212.4876,-205.991"/>
<polygon fill="#000000" stroke="#000000" points="208.9876,-205.9909 212.4876,-215.991 215.9876,-205.991 208.9876,-205.9909"/>
</g>
</g>
</svg>
